<?xml version="1.0" encoding="utf-8"?>
<!-- Generator: Adobe Illustrator 16.0.0, SVG Export Plug-In . SVG Version: 6.00 Build 0)  -->
<!DOCTYPE svg PUBLIC "-//W3C//DTD SVG 1.1//EN" "http://www.w3.org/Graphics/SVG/1.1/DTD/svg11.dtd">
<svg version="1.1" xmlns="http://www.w3.org/2000/svg" xmlns:xlink="http://www.w3.org/1999/xlink" x="0px" y="0px" width="140px"
	 height="65px" viewBox="0 0 140 65" enable-background="new 0 0 140 65" xml:space="preserve">
<g id="圖層_2" display="none">
	<rect x="-168.156" y="-949.09" display="inline" fill="#DCDDDD" width="1834" height="1234"/>
</g>
<g id="圖層_1">
	<g enable-background="new    ">
		<g>
			<g>
				<defs>
					<path id="SVGID_185_" d="M93.468-107.975C93.468-86.738,76.249-69.51,55-69.51c-21.246,0-38.467-17.229-38.467-38.465
						c0-21.244,17.221-38.469,38.467-38.469C76.249-146.443,93.468-129.219,93.468-107.975z"/>
				</defs>
				<clipPath id="SVGID_1_">
					<use xlink:href="#SVGID_185_"  overflow="visible"/>
				</clipPath>
				<g clip-path="url(#SVGID_1_)">
					<defs>
						<rect id="SVGID_187_" x="-189.879" y="-408.955" width="489.244" height="616.137"/>
					</defs>
					<clipPath id="SVGID_2_">
						<use xlink:href="#SVGID_187_"  overflow="visible"/>
					</clipPath>
				</g>
			</g>
		</g>
	</g>
	<g>
		<g>
			<g>
				<defs>
					<polygon id="SVGID_189_" points="39.183,56.027 40.613,53.547 37.738,53.547 					"/>
				</defs>
				<clipPath id="SVGID_3_">
					<use xlink:href="#SVGID_189_"  overflow="visible"/>
				</clipPath>
				
					<radialGradient id="SVGID_4_" cx="173.7563" cy="-487.9912" r="0.2964" gradientTransform="matrix(7.1873 0 0 -7.1873 -1208.3591 -3453.6841)" gradientUnits="userSpaceOnUse">
					<stop  offset="0" style="stop-color:#E4211A"/>
					<stop  offset="0.2865" style="stop-color:#E4211A"/>
					<stop  offset="0.8371" style="stop-color:#A51F25"/>
					<stop  offset="1" style="stop-color:#A51F25"/>
				</radialGradient>
				<rect x="37.738" y="53.547" clip-path="url(#SVGID_3_)" fill="url(#SVGID_4_)" width="2.875" height="2.48"/>
			</g>
			<g>
				<defs>
					<polygon id="SVGID_192_" points="36.97,53.549 37.468,55.368 37.741,53.547 					"/>
				</defs>
				<clipPath id="SVGID_5_">
					<use xlink:href="#SVGID_192_"  overflow="visible"/>
				</clipPath>
				
					<linearGradient id="SVGID_6_" gradientUnits="userSpaceOnUse" x1="118.4238" y1="-793.2373" x2="118.7256" y2="-793.2373" gradientTransform="matrix(2.5523 0 0 -2.5523 -265.2782 -1970.124)">
					<stop  offset="0" style="stop-color:#E4211A"/>
					<stop  offset="0.2865" style="stop-color:#E4211A"/>
					<stop  offset="0.8371" style="stop-color:#A51F25"/>
					<stop  offset="1" style="stop-color:#A51F25"/>
				</linearGradient>
				<rect x="36.97" y="53.547" clip-path="url(#SVGID_5_)" fill="url(#SVGID_6_)" width="0.771" height="1.821"/>
			</g>
			<g>
				<defs>
					<polygon id="SVGID_195_" points="38.808,56.69 39.187,56.025 37.468,55.368 					"/>
				</defs>
				<clipPath id="SVGID_7_">
					<use xlink:href="#SVGID_195_"  overflow="visible"/>
				</clipPath>
				
					<linearGradient id="SVGID_8_" gradientUnits="userSpaceOnUse" x1="-363.0327" y1="-306.3828" x2="-362.7316" y2="-306.3828" gradientTransform="matrix(0.3468 -2.1239 -2.1239 -0.3468 -486.5605 -820.8984)">
					<stop  offset="0" style="stop-color:#E4211A"/>
					<stop  offset="0.2865" style="stop-color:#E4211A"/>
					<stop  offset="0.8371" style="stop-color:#A51F25"/>
					<stop  offset="1" style="stop-color:#A51F25"/>
				</linearGradient>
				<polygon clip-path="url(#SVGID_7_)" fill="url(#SVGID_8_)" points="37.256,56.657 37.512,55.094 39.399,55.401 39.143,56.965 
									"/>
			</g>
			<g>
				<defs>
					<path id="SVGID_198_" d="M37.447,51.729c0,0,0,0,0.294,1.817l1.418-2.495L37.447,51.729z"/>
				</defs>
				<clipPath id="SVGID_9_">
					<use xlink:href="#SVGID_198_"  overflow="visible"/>
				</clipPath>
				
					<linearGradient id="SVGID_10_" gradientUnits="userSpaceOnUse" x1="42.5503" y1="-421.127" x2="42.8515" y2="-421.127" gradientTransform="matrix(4.3178 -4.7443 -4.7443 -4.3178 -2143.9521 -1563.5447)">
					<stop  offset="0" style="stop-color:#F3C31D"/>
					<stop  offset="0.1629" style="stop-color:#F3C31D"/>
					<stop  offset="0.809" style="stop-color:#EA651A"/>
					<stop  offset="1" style="stop-color:#EA651A"/>
				</linearGradient>
				<polygon clip-path="url(#SVGID_9_)" fill="url(#SVGID_10_)" points="36.206,52.417 38.222,50.199 40.399,52.183 38.383,54.397 
									"/>
			</g>
			<g>
				<defs>
					<path id="SVGID_201_" d="M37.47,55.368c0,0-0.002,0,1.717,0.657l-1.446-2.479L37.47,55.368z"/>
				</defs>
				<clipPath id="SVGID_11_">
					<use xlink:href="#SVGID_201_"  overflow="visible"/>
				</clipPath>
				
					<linearGradient id="SVGID_12_" gradientUnits="userSpaceOnUse" x1="327.2852" y1="-448.585" x2="327.5863" y2="-448.585" gradientTransform="matrix(4.1036 5.5958 5.5958 -4.1036 1204.9272 -3618.1978)">
					<stop  offset="0" style="stop-color:#E96547"/>
					<stop  offset="0.4494" style="stop-color:#E96547"/>
					<stop  offset="1" style="stop-color:#E4211A"/>
				</linearGradient>
				<polygon clip-path="url(#SVGID_11_)" fill="url(#SVGID_12_)" points="38.586,52.726 40.368,55.157 38.068,56.845 36.285,54.413 
									"/>
			</g>
			<g>
				<defs>
					<polygon id="SVGID_204_" points="37.741,53.547 40.613,53.549 39.159,51.052 					"/>
				</defs>
				<clipPath id="SVGID_13_">
					<use xlink:href="#SVGID_204_"  overflow="visible"/>
				</clipPath>
				
					<radialGradient id="SVGID_14_" cx="179.9233" cy="-455.5176" r="0.3006" gradientTransform="matrix(8.9063 0 0 -8.9063 -1561.8369 -4003.4424)" gradientUnits="userSpaceOnUse">
					<stop  offset="0" style="stop-color:#F19218"/>
					<stop  offset="0.1629" style="stop-color:#F19218"/>
					<stop  offset="0.809" style="stop-color:#E53A19"/>
					<stop  offset="1" style="stop-color:#E53A19"/>
				</radialGradient>
				<rect x="37.741" y="51.052" clip-path="url(#SVGID_13_)" fill="url(#SVGID_14_)" width="2.872" height="2.497"/>
			</g>
			<g>
				<defs>
					<polygon id="SVGID_207_" points="37.447,51.729 39.159,51.052 38.773,50.389 					"/>
				</defs>
				<clipPath id="SVGID_15_">
					<use xlink:href="#SVGID_207_"  overflow="visible"/>
				</clipPath>
				
					<linearGradient id="SVGID_16_" gradientUnits="userSpaceOnUse" x1="529.0327" y1="-494.8457" x2="529.3342" y2="-494.8457" gradientTransform="matrix(1.039 3.2037 3.2037 -1.039 1073.7908 -2158.4907)">
					<stop  offset="0" style="stop-color:#F19218"/>
					<stop  offset="0.1629" style="stop-color:#F19218"/>
					<stop  offset="0.809" style="stop-color:#E53A19"/>
					<stop  offset="1" style="stop-color:#E53A19"/>
				</linearGradient>
				<polygon clip-path="url(#SVGID_15_)" fill="url(#SVGID_16_)" points="38.997,49.886 39.553,51.603 37.611,52.231 37.053,50.519 
									"/>
			</g>
			<g>
				<defs>
					<polygon id="SVGID_210_" points="36.97,53.551 37.741,53.547 37.447,51.729 					"/>
				</defs>
				<clipPath id="SVGID_17_">
					<use xlink:href="#SVGID_210_"  overflow="visible"/>
				</clipPath>
				
					<linearGradient id="SVGID_18_" gradientUnits="userSpaceOnUse" x1="234.9717" y1="-636.9727" x2="235.2733" y2="-636.9727" gradientTransform="matrix(3.7264 1.0399 1.0399 -3.7264 -176.6019 -2565.5298)">
					<stop  offset="0" style="stop-color:#F19218"/>
					<stop  offset="0.1629" style="stop-color:#F19218"/>
					<stop  offset="0.809" style="stop-color:#E53A19"/>
					<stop  offset="1" style="stop-color:#E53A19"/>
				</linearGradient>
				<polygon clip-path="url(#SVGID_17_)" fill="url(#SVGID_18_)" points="37.025,51.528 38.209,51.86 37.684,53.748 36.499,53.417 
									"/>
			</g>
			<g>
				<defs>
					<polygon id="SVGID_213_" points="39.187,56.024 42.06,56.025 40.613,53.547 					"/>
				</defs>
				<clipPath id="SVGID_19_">
					<use xlink:href="#SVGID_213_"  overflow="visible"/>
				</clipPath>
				
					<radialGradient id="SVGID_20_" cx="174.3574" cy="-484.5088" r="0.3005" gradientTransform="matrix(7.3417 0 0 -7.3417 -1239.467 -3503.5488)" gradientUnits="userSpaceOnUse">
					<stop  offset="0" style="stop-color:#0B6BA4"/>
					<stop  offset="0.5056" style="stop-color:#0B6BA4"/>
					<stop  offset="1" style="stop-color:#1B2D75"/>
				</radialGradient>
				<rect x="39.187" y="53.547" clip-path="url(#SVGID_19_)" fill="url(#SVGID_20_)" width="2.873" height="2.479"/>
			</g>
			<g>
				<defs>
					<polygon id="SVGID_216_" points="38.808,56.69 40.628,57.17 39.187,56.024 					"/>
				</defs>
				<clipPath id="SVGID_21_">
					<use xlink:href="#SVGID_216_"  overflow="visible"/>
				</clipPath>
				
					<linearGradient id="SVGID_22_" gradientUnits="userSpaceOnUse" x1="-201.8037" y1="-628.6455" x2="-201.5026" y2="-628.6455" gradientTransform="matrix(1.7761 -1.6027 -1.6027 -1.7761 -609.803 -1382.9961)">
					<stop  offset="0" style="stop-color:#0B6BA4"/>
					<stop  offset="0.5056" style="stop-color:#0B6BA4"/>
					<stop  offset="1" style="stop-color:#1B2D75"/>
				</linearGradient>
				<polygon clip-path="url(#SVGID_21_)" fill="url(#SVGID_22_)" points="38.238,56.538 39.811,55.12 41.198,56.655 39.625,58.074 
									"/>
			</g>
			<g>
				<defs>
					<polygon id="SVGID_219_" points="42.031,51.052 43.751,51.711 42.41,50.386 					"/>
				</defs>
				<clipPath id="SVGID_23_">
					<use xlink:href="#SVGID_219_"  overflow="visible"/>
				</clipPath>
				
					<linearGradient id="SVGID_24_" gradientUnits="userSpaceOnUse" x1="619.1362" y1="-296.499" x2="619.4378" y2="-296.499" gradientTransform="matrix(-0.7365 2.9031 2.9031 0.7365 1359.7319 -1528.3271)">
					<stop  offset="0" style="stop-color:#AACC2C"/>
					<stop  offset="1" style="stop-color:#3D6B34"/>
				</linearGradient>
				<polygon clip-path="url(#SVGID_23_)" fill="url(#SVGID_24_)" points="44.067,50.465 43.645,52.12 41.716,51.63 42.133,49.978 
									"/>
			</g>
			<g>
				<defs>
					<polygon id="SVGID_222_" points="42.059,56.028 43.481,53.551 40.613,53.547 					"/>
				</defs>
				<clipPath id="SVGID_25_">
					<use xlink:href="#SVGID_222_"  overflow="visible"/>
				</clipPath>
				
					<radialGradient id="SVGID_26_" cx="173.4771" cy="-489.0117" r="0.3011" gradientTransform="matrix(7.1473 0 0 -7.1473 -1199.2983 -3441.4956)" gradientUnits="userSpaceOnUse">
					<stop  offset="0" style="stop-color:#38A7C3"/>
					<stop  offset="0.2416" style="stop-color:#38A7C3"/>
					<stop  offset="0.8764" style="stop-color:#0C5C9B"/>
					<stop  offset="1" style="stop-color:#0C5C9B"/>
				</radialGradient>
				<rect x="40.613" y="53.547" clip-path="url(#SVGID_25_)" fill="url(#SVGID_26_)" width="2.868" height="2.481"/>
			</g>
			<g>
				<defs>
					<polygon id="SVGID_225_" points="42.06,56.024 42.44,56.675 43.771,55.35 					"/>
				</defs>
				<clipPath id="SVGID_28_">
					<use xlink:href="#SVGID_225_"  overflow="visible"/>
				</clipPath>
				
					<linearGradient id="SVGID_30_" gradientUnits="userSpaceOnUse" x1="-192.043" y1="-191.6699" x2="-191.7415" y2="-191.6699" gradientTransform="matrix(-0.3428 -2.9144 -2.9144 0.3428 -581.4688 -437.5461)">
					<stop  offset="0" style="stop-color:#38A7C3"/>
					<stop  offset="0.2416" style="stop-color:#38A7C3"/>
					<stop  offset="0.8764" style="stop-color:#0C5C9B"/>
					<stop  offset="1" style="stop-color:#0C5C9B"/>
				</linearGradient>
				<polygon clip-path="url(#SVGID_28_)" fill="url(#SVGID_30_)" points="42.084,56.876 41.908,55.366 43.749,55.148 43.926,56.657 
									"/>
			</g>
			<g>
				<defs>
					<polygon id="SVGID_228_" points="40.613,53.549 42.031,51.052 39.159,51.052 					"/>
				</defs>
				<clipPath id="SVGID_31_">
					<use xlink:href="#SVGID_228_"  overflow="visible"/>
				</clipPath>
				
					<radialGradient id="SVGID_33_" cx="173.4155" cy="-489.5352" r="0.3016" gradientTransform="matrix(7.1238 0 0 -7.1238 -1194.7644 -3433.7944)" gradientUnits="userSpaceOnUse">
					<stop  offset="0" style="stop-color:#EDE93A"/>
					<stop  offset="0.3708" style="stop-color:#EDE93A"/>
					<stop  offset="1" style="stop-color:#F19218"/>
				</radialGradient>
				<rect x="39.159" y="51.052" clip-path="url(#SVGID_31_)" fill="url(#SVGID_33_)" width="2.872" height="2.497"/>
			</g>
			<g>
				<defs>
					<polygon id="SVGID_231_" points="38.773,50.389 39.159,51.052 40.59,49.909 					"/>
				</defs>
				<clipPath id="SVGID_34_">
					<use xlink:href="#SVGID_231_"  overflow="visible"/>
				</clipPath>
				
					<linearGradient id="SVGID_36_" gradientUnits="userSpaceOnUse" x1="576.6606" y1="-552.1689" x2="576.9617" y2="-552.1689" gradientTransform="matrix(1.0378 2.6378 2.6378 -1.0378 897.4878 -2044.3069)">
					<stop  offset="0" style="stop-color:#EDE93A"/>
					<stop  offset="0.3708" style="stop-color:#EDE93A"/>
					<stop  offset="1" style="stop-color:#F19218"/>
				</linearGradient>
				<polygon clip-path="url(#SVGID_34_)" fill="url(#SVGID_36_)" points="40.345,49.29 40.977,50.897 39.018,51.669 38.383,50.063 
									"/>
			</g>
			<g>
				<defs>
					<polygon id="SVGID_234_" points="42.031,51.052 42.41,50.386 40.59,49.909 					"/>
				</defs>
				<clipPath id="SVGID_37_">
					<use xlink:href="#SVGID_234_"  overflow="visible"/>
				</clipPath>
				
					<linearGradient id="SVGID_39_" gradientUnits="userSpaceOnUse" x1="715.4292" y1="-215.7236" x2="715.7303" y2="-215.7236" gradientTransform="matrix(-0.9087 2.2069 2.2069 0.9087 1167.9175 -1332.9231)">
					<stop  offset="0" style="stop-color:#EDE93A"/>
					<stop  offset="0.3708" style="stop-color:#EDE93A"/>
					<stop  offset="1" style="stop-color:#F19218"/>
				</linearGradient>
				<polygon clip-path="url(#SVGID_37_)" fill="url(#SVGID_39_)" points="42.815,50.075 42.146,51.693 40.188,50.888 40.855,49.269 
									"/>
			</g>
			<g>
				<defs>
					<path id="SVGID_237_" d="M40.59,49.909l-1.431,1.143h2.872C40.591,49.911,40.59,49.909,40.59,49.909L40.59,49.909"/>
				</defs>
				<clipPath id="SVGID_40_">
					<use xlink:href="#SVGID_237_"  overflow="visible"/>
				</clipPath>
				
					<linearGradient id="SVGID_42_" gradientUnits="userSpaceOnUse" x1="192.5552" y1="-462.7617" x2="192.8565" y2="-462.7617" gradientTransform="matrix(8.5816 0.7995 0.7995 -8.5816 -1242.886 -4074.8027)">
					<stop  offset="0" style="stop-color:#F2ED71"/>
					<stop  offset="0.2809" style="stop-color:#F2ED71"/>
					<stop  offset="0.8202" style="stop-color:#F3C31D"/>
					<stop  offset="1" style="stop-color:#F3C31D"/>
				</linearGradient>
				<polygon clip-path="url(#SVGID_40_)" fill="url(#SVGID_42_)" points="39.184,49.646 42.137,49.921 42.008,51.317 39.053,51.042 
									"/>
			</g>
			<g>
				<defs>
					<polygon id="SVGID_240_" points="43.479,53.556 44.248,53.556 43.751,51.711 					"/>
				</defs>
				<clipPath id="SVGID_43_">
					<use xlink:href="#SVGID_240_"  overflow="visible"/>
				</clipPath>
				
					<linearGradient id="SVGID_45_" gradientUnits="userSpaceOnUse" x1="337.458" y1="118.5879" x2="337.7592" y2="118.5879" gradientTransform="matrix(-2.6888 0.2602 0.2602 2.6888 920.9296 -354.0898)">
					<stop  offset="0" style="stop-color:#AACC2C"/>
					<stop  offset="1" style="stop-color:#3D6B34"/>
				</linearGradient>
				<polygon clip-path="url(#SVGID_43_)" fill="url(#SVGID_45_)" points="44.423,53.536 43.487,53.626 43.302,51.728 44.241,51.637 
									"/>
			</g>
			<g>
				<defs>
					<path id="SVGID_243_" d="M43.481,53.551l0.271-1.84c0,0,0-0.002-1.72-0.659L43.481,53.551z"/>
				</defs>
				<clipPath id="SVGID_46_">
					<use xlink:href="#SVGID_243_"  overflow="visible"/>
				</clipPath>
				
					<linearGradient id="SVGID_48_" gradientUnits="userSpaceOnUse" x1="164.6724" y1="-532.3838" x2="164.9741" y2="-532.3838" gradientTransform="matrix(5.7056 0 0 -5.7056 -897.5195 -2985.2705)">
					<stop  offset="0" style="stop-color:#67AF30"/>
					<stop  offset="0.1404" style="stop-color:#67AF30"/>
					<stop  offset="0.7697" style="stop-color:#C1D530"/>
					<stop  offset="1" style="stop-color:#C1D530"/>
				</linearGradient>
				<rect x="42.031" y="51.052" clip-path="url(#SVGID_46_)" fill="url(#SVGID_48_)" width="1.72" height="2.499"/>
			</g>
			<g>
				<defs>
					<polygon id="SVGID_246_" points="40.628,57.17 42.44,56.675 42.06,56.024 					"/>
				</defs>
				<clipPath id="SVGID_49_">
					<use xlink:href="#SVGID_246_"  overflow="visible"/>
				</clipPath>
				
					<linearGradient id="SVGID_51_" gradientUnits="userSpaceOnUse" x1="91.582" y1="-2.1846" x2="91.8833" y2="-2.1846" gradientTransform="matrix(-3.1158 -1.8609 -1.8609 3.1158 323.6512 234.3213)">
					<stop  offset="0" style="stop-color:#0B6BA4"/>
					<stop  offset="0.5056" style="stop-color:#0B6BA4"/>
					<stop  offset="1" style="stop-color:#1B2D75"/>
				</linearGradient>
				<polygon clip-path="url(#SVGID_49_)" fill="url(#SVGID_51_)" points="41.961,57.966 40.125,56.868 41.105,55.226 42.945,56.325 
									"/>
			</g>
			<g>
				<defs>
					<path id="SVGID_249_" d="M39.187,56.024c1.441,1.146,1.441,1.146,1.441,1.146l1.432-1.146H39.187z"/>
				</defs>
				<clipPath id="SVGID_52_">
					<use xlink:href="#SVGID_249_"  overflow="visible"/>
				</clipPath>
				
					<linearGradient id="SVGID_54_" gradientUnits="userSpaceOnUse" x1="171.7178" y1="-470.9961" x2="172.0193" y2="-470.9961" gradientTransform="matrix(7.8868 -0.2664 -0.2664 -7.8868 -1440.285 -3612.2754)">
					<stop  offset="0" style="stop-color:#1895B8"/>
					<stop  offset="0.3258" style="stop-color:#1895B8"/>
					<stop  offset="1" style="stop-color:#124D94"/>
				</linearGradient>
				<polygon clip-path="url(#SVGID_52_)" fill="url(#SVGID_54_)" points="39.149,56.025 42.059,55.93 42.098,57.17 39.189,57.267 
									"/>
			</g>
			<g>
				<defs>
					<polygon id="SVGID_252_" points="43.481,53.551 43.771,55.35 44.248,53.551 					"/>
				</defs>
				<clipPath id="SVGID_55_">
					<use xlink:href="#SVGID_252_"  overflow="visible"/>
				</clipPath>
				
					<linearGradient id="SVGID_57_" gradientUnits="userSpaceOnUse" x1="409.1445" y1="23.0781" x2="409.4458" y2="23.0781" gradientTransform="matrix(-2.9188 1.0301 1.0301 2.9188 1214.9331 -434.5918)">
					<stop  offset="0" style="stop-color:#38A7C3"/>
					<stop  offset="0.2416" style="stop-color:#38A7C3"/>
					<stop  offset="0.8764" style="stop-color:#0C5C9B"/>
					<stop  offset="1" style="stop-color:#0C5C9B"/>
				</linearGradient>
				<polygon clip-path="url(#SVGID_55_)" fill="url(#SVGID_57_)" points="44.812,55.148 43.566,55.589 42.917,53.752 44.162,53.311 
									"/>
			</g>
			<g>
				<defs>
					<path id="SVGID_255_" d="M43.774,55.35 M42.06,56.025l1.714-0.676c0,0-0.01-0.025-0.293-1.799L42.06,56.025z"/>
				</defs>
				<clipPath id="SVGID_58_">
					<use xlink:href="#SVGID_255_"  overflow="visible"/>
				</clipPath>
				
					<linearGradient id="SVGID_60_" gradientUnits="userSpaceOnUse" x1="44.3994" y1="-389.207" x2="44.7011" y2="-389.207" gradientTransform="matrix(3.9452 -5.7578 -5.7578 -3.9452 -2373.9429 -1224.0256)">
					<stop  offset="0" style="stop-color:#1895B8"/>
					<stop  offset="0.2022" style="stop-color:#1895B8"/>
					<stop  offset="0.7978" style="stop-color:#66BBD0"/>
					<stop  offset="1" style="stop-color:#66BBD0"/>
				</linearGradient>
				<polygon clip-path="url(#SVGID_58_)" fill="url(#SVGID_60_)" points="40.907,55.234 42.607,52.753 44.927,54.343 43.224,56.825 
									"/>
			</g>
			<g>
				<defs>
					<polygon id="SVGID_258_" points="40.613,53.549 43.483,53.556 42.031,51.052 					"/>
				</defs>
				<clipPath id="SVGID_61_">
					<use xlink:href="#SVGID_258_"  overflow="visible"/>
				</clipPath>
				
					<radialGradient id="SVGID_63_" cx="177.6812" cy="-467.0273" r="0.3015" gradientTransform="matrix(8.2128 0 0 -8.2128 -1418.6041 -3782.041)" gradientUnits="userSpaceOnUse">
					<stop  offset="0" style="stop-color:#AACC2C"/>
					<stop  offset="1" style="stop-color:#3D6B34"/>
				</radialGradient>
				<rect x="40.613" y="51.052" clip-path="url(#SVGID_61_)" fill="url(#SVGID_63_)" width="2.87" height="2.504"/>
			</g>
		</g>
		<g>
			<g>
				<path fill="#8575B2" d="M28.222,48.413c0,0-1.541-3.748-0.214-4.057c1.442-0.335,2.557,2.795,3.152,4.182
					c0.598,1.387,2.689,5.318,1.128,5.227C30.847,53.686,29.28,50.78,28.222,48.413z"/>
				<path fill="#D2007F" d="M34.055,39.66c0,0-1.939,0.257-3.382,2.29c-1.439,2.035-0.341,5.635,1.835,6.613
					c2.175,0.982,3.757-0.565,3.538-2.959c-0.22-2.399-0.739-1.321-1.41-0.114c-0.404,0.723-2.771,0.998-2.383-1.404
					c0.244-1.497,1.478-1.423,2.393-1.918C35.482,41.718,35.116,39.394,34.055,39.66z"/>
				<path fill="#008ED2" d="M27.661,47.196c-0.573-1.249-1.737-1.82-3.92-1.105c-1.639,0.539-2.42,2.521-1.376,4.775
					c0.796,1.723,4.536,1.999,4.947,2.595c0.812,1.174-1.414,1.259-3.87,1.181c-0.064-0.004-0.12-0.076-0.184-0.08
					c-0.411-0.022-2.667,3.194,0.221,2.996c4.517-0.31,6.345-1.652,6.402-3.623c0.059-1.932-2.201-3.258-3.557-3.379
					c-1.896-0.171-2.053-2.21-0.59-1.777C26.794,49.09,28.027,47.989,27.661,47.196z"/>
				<path fill="#00A74D" d="M15.249,49.846c0,0,0.125,7.023,3.343,7.873c1.641,0.437,3.816-0.515,3.461-4.531
					c-0.43-4.876-1.379-7.022-2.666-6.715c0,0-1.438,0.265-0.529,2.915c0.42,1.226,1.457,4.053,0.819,4.514
					c-0.635,0.459-1.917-2.495-1.775-4.719C18.08,46.417,15.454,46.161,15.249,49.846z"/>
				<path fill="#E40011" d="M4.087,40.689c0,0,1.462-6.915,8.285-9.552c0,0,4.196-1.735,3.005,0.275c0,0-2.299,4.178-1.209,4.488
					c1.981,0.564,2.795-6.689,6.379-5.387c1.77,0.646,0.802,8.156-0.668,12.152c-1.474,3.991-2.754,3.536-4.424,3.494
					s0.089-2.383,0.632-4.941c0.32-1.506,1.015-4.274-0.901-2.008c-1.349,1.597-5.849,4.048-4.735-1.961
					c0,0-2.028,1.396-3.075,4.475C6.331,44.806,3.952,43.973,4.087,40.689z"/>
				<path fill="#8CC11F" d="M4.754,44.226c-0.6,0.508-0.793,1.462,0.478,4.665c1.096,2.765,3.407,5.111,4.202,5.805
					c0.668,0.583,4.681,2.131,0.946-2.794c-0.906-1.194-2.222-3.725-1.283-2.812c0.661,0.648,1.929,1.087,2.272-0.763
					c0,0,0.708,7.713,2.109,7.96c1.07,0.186,1.455-1.989,1.354-4.353c-0.114-2.689-0.239-11.451-2.944-10.228
					c0,0-1.142,0.07-1.432,3.328c-0.184,2.077-1.734,3.257-2.223,0.737C7.932,44.206,5.733,43.394,4.754,44.226z"/>
				<path fill="#ED7A00" d="M22.654,35.591c0,0-1.598-5.031,1.531-4.399c1.846,0.369,2.757,5.05,3.537,5.774
					c0.486,0.455,1.613,0.086,2.436-1.082c0.492-0.701,0.602-1.979,0.602-1.979s3.323,2.928,1.582,5.167
					c-1.364,1.753-7.664,7.06-11.198,7.015c-0.083-0.001-3.008-1.586,0.198-3.428C25.42,40.317,25.465,40.507,22.654,35.591z"/>
				<g>
					<path fill="#E40011" d="M37.275,43.397l0.224-1.188l4.473-24.618c0,0,0.069-0.309,0.256-0.36
						c0.188-0.049,0.378,0.019,0.636,0.157c8.549,4.57,16.442-1.479,16.442-1.479C45.974,17.998,44.862,6.298,44.277,4.276
						c-0.125-0.816-0.757-1.499-1.635-1.643c-1.104-0.177-2.155,0.56-2.352,1.643l-6,33.368c0,0,1.712,2.169,2.277,6.318
						C36.645,44.53,37.155,44.024,37.275,43.397z"/>
				</g>
			</g>
			<g>
				<path fill="#808080" d="M28.651,48.343c0,0-1.424-3.469-0.354-4.007c-0.094-0.009-0.191-0.002-0.29,0.021
					c-1.327,0.309,0.214,4.057,0.214,4.057c1.058,2.367,2.625,5.272,4.067,5.352c0.149,0.012,0.265-0.02,0.352-0.079
					C31.224,53.511,29.691,50.667,28.651,48.343z"/>
				<g>
					<path fill="#808080" d="M34.636,45.49c-0.106,0.189-0.35,0.349-0.643,0.437c0.468-0.018,0.915-0.229,1.07-0.511
						c0.259-0.46,0.494-0.901,0.697-1.139C35.491,43.886,35.099,44.657,34.636,45.49z"/>
					<path fill="#808080" d="M32.937,48.493c-2.175-0.98-3.274-4.58-1.834-6.614c1.136-1.601,2.573-2.099,3.137-2.238
						c-0.06-0.003-0.122,0.004-0.185,0.02c0,0-1.939,0.257-3.382,2.29c-1.439,2.035-0.341,5.635,1.835,6.613
						c0.692,0.313,1.327,0.369,1.859,0.222C33.935,48.815,33.452,48.726,32.937,48.493z"/>
				</g>
				<g>
					<path fill="#808080" d="M26.574,48.759c-0.137,0.004-0.274-0.014-0.409-0.052c-0.31-0.092-0.547-0.071-0.709,0.019
						c0.086,0.007,0.178,0.023,0.28,0.053C26.013,48.86,26.303,48.843,26.574,48.759z"/>
					<path fill="#009BDE" d="M27.312,53.461c0.4,0.579,0.063,0.892-0.675,1.053c1.024-0.129,1.576-0.444,1.105-1.125
						c-0.412-0.593-4.154-0.873-4.95-2.595c-1.041-2.254-0.263-4.234,1.378-4.775c0.266-0.088,0.519-0.155,0.756-0.204
						c-0.357,0.045-0.751,0.133-1.186,0.276c-1.639,0.539-2.42,2.521-1.376,4.775C23.161,52.589,26.901,52.865,27.312,53.461z"/>
					<path fill="#808080" d="M23.911,57.486c-2.504,0.171-1.146-2.216-0.472-2.845c-0.063-0.005-0.119-0.076-0.18-0.08
						c-0.411-0.022-2.667,3.194,0.221,2.996c0.785-0.054,1.487-0.141,2.113-0.254C25.078,57.384,24.519,57.444,23.911,57.486z"/>
				</g>
				<path fill="#808080" d="M19.019,57.649c-3.215-0.853-3.341-7.874-3.341-7.874c0.089-1.577,0.62-2.432,1.185-2.677
					c-0.698-0.071-1.502,0.771-1.614,2.747c0,0,0.125,7.023,3.343,7.873c0.44,0.116,0.919,0.134,1.379,0.017
					C19.648,57.763,19.324,57.729,19.019,57.649z"/>
				<g>
					<path fill="#808080" d="M4.516,40.619c0,0,1.464-6.915,8.286-9.554c0,0,1.009-0.417,1.897-0.604
						c-0.953,0.108-2.326,0.677-2.326,0.677c-6.823,2.637-8.285,9.552-8.285,9.552c-0.088,2.158,0.91,3.258,1.899,2.883
						C5.159,43.533,4.439,42.462,4.516,40.619z"/>
					<path fill="#808080" d="M14.725,35.854c1.614,0.191,2.473-4.82,4.872-5.492C17.104,30.5,16.168,35.192,14.725,35.854z"/>
					<path fill="#808080" d="M10.907,36.979l-0.458,0.271c0,0-0.049,0.323-0.057,0.33c-0.497,3.129,0.651,3.755,1.99,3.426
						C11.197,41.104,10.341,40.038,10.907,36.979z"/>
				</g>
				<g>
					<path fill="#808080" d="M13.908,56.215c-1.403-0.247-2.343-8.811-2.343-8.811c-0.061,0.328-0.196,0.923-0.196,0.923
						s0.065,0.607,0.086,0.835c0.23,1.999,0.907,6.929,2.023,7.125c0.162,0.028,0.307,0,0.441-0.071
						C13.913,56.216,13.911,56.216,13.908,56.215z"/>
					<path fill="#808080" d="M9.863,54.623c-0.795-0.692-3.104-3.04-4.201-5.804c-1.272-3.204-1.079-4.157-0.48-4.665
						c0.145-0.122,0.314-0.203,0.499-0.257c-0.353,0.013-0.678,0.116-0.926,0.328c-0.6,0.508-0.793,1.462,0.478,4.665
						c1.096,2.765,3.407,5.111,4.202,5.805c0.359,0.313,1.678,0.9,2.248,0.623C11.042,55.295,10.15,54.872,9.863,54.623z"/>
				</g>
				<g>
					<path fill="#808080" d="M30.585,35.812c0.311-0.439,0.469-1.108,0.545-1.544c-0.221-0.229-0.371-0.362-0.371-0.362
						s-0.109,1.277-0.602,1.979c-0.453,0.645-0.997,1.043-1.478,1.197C29.236,37.084,29.991,36.66,30.585,35.812z"/>
					<path fill="#808080" d="M21.571,46.017c-0.081-0.002-3.009-1.586,0.2-3.43c4.079-2.342,4.123-2.152,1.313-7.068
						c0,0-1.208-3.805,0.536-4.381c-2.355,0.072-0.967,4.453-0.967,4.453c2.811,4.916,2.767,4.727-1.312,7.068
						c-3.206,1.842-0.281,3.427-0.198,3.428c0.312,0.006,0.648-0.036,0.998-0.109C21.947,46.003,21.754,46.019,21.571,46.017z"/>
				</g>
				<g>
					<path fill="#808080" d="M36.996,43.894c-0.565-4.151-2.277-6.321-2.277-6.321L40.72,4.203c0.143-0.786,0.736-1.387,1.473-1.591
						c-0.925,0.055-1.734,0.729-1.903,1.664l-6,33.368c0,0,1.712,2.169,2.277,6.318c0.049,0.355,0.268,0.288,0.455,0.034
						C37.012,43.967,37.003,43.933,36.996,43.894z"/>
					<path fill="#808080" d="M43.294,17.317c-0.258-0.139-0.45-0.208-0.637-0.156c-0.05,0.014-0.09,0.046-0.122,0.084
						c0.098,0.027,0.205,0.078,0.329,0.144c3.451,1.846,6.893,1.959,9.77,1.44C49.846,19.261,46.574,19.072,43.294,17.317z"/>
				</g>
			</g>
			<path fill="#808080" d="M15.885,46.089c-1.672-0.043,0.088-2.383,0.632-4.94c0.199-0.948,0.55-2.393,0.305-2.771
				c-0.009-0.015-0.025-0.039-0.061-0.061c-0.008-0.007-0.016-0.01-0.023-0.014c-0.009-0.004-0.019-0.009-0.029-0.013L16.7,38.289
				c-0.09-0.029-0.242-0.032-0.508,0.063c0,0,0.092-0.023,0.168,0.055c0.308,0.304-0.064,1.826-0.273,2.812
				c-0.543,2.559-2.303,4.899-0.632,4.941c0.651,0.016,1.241,0.094,1.808-0.05C16.828,46.148,16.372,46.102,15.885,46.089z"/>
			<path fill="#808080" d="M20.236,53.656c0.329-0.774-0.566-3.224-0.95-4.339c-0.734-2.136,0.057-2.723,0.393-2.87
				c-0.096-0.007-0.192,0.001-0.293,0.025c0,0-1.438,0.265-0.529,2.915c0.399,1.157,1.348,3.754,0.904,4.419
				c0,0,0.002,0,0.002,0.003c-0.05,0.075-0.127,0.137-0.255,0.141c0.21,0.033,0.452,0.043,0.636-0.155
				c0.013-0.015,0.026-0.03,0.039-0.047c0.006-0.007,0.01-0.013,0.016-0.021C20.222,53.698,20.232,53.674,20.236,53.656z"/>
			<path fill="#808080" d="M10.625,49.576c-0.396-0.026-0.808-0.271-1.101-0.558c-0.074-0.073-0.135-0.124-0.183-0.155
				c-0.315-0.225-0.507-0.028-0.553,0.044c0.09-0.058,0.326,0.205,0.525,0.373c0.016,0.01,0.03,0.023,0.047,0.03
				C9.743,49.585,10.221,49.752,10.625,49.576z"/>
			<path fill="#808080" d="M11.889,41.707c0,0-1.142,0.07-1.432,3.328c-0.07,0.795-0.34,1.457-0.679,1.831
				c-0.001,0.002-0.003,0.002-0.003,0.002S9.758,46.89,9.731,46.92c-0.048,0.05-0.099,0.094-0.151,0.13
				c-0.014,0.012-0.03,0.022-0.049,0.034c-0.01,0.007-0.018,0.012-0.027,0.018C9.4,47.159,9.272,47.204,9.128,47.2
				c0.233,0.015,0.472,0.079,0.845-0.197c0.438-0.289,0.827-1.063,0.911-2.039c0.291-3.261,1.435-3.329,1.435-3.329
				c0.036-0.015,0.072-0.027,0.105-0.041C12.258,41.587,12.081,41.62,11.889,41.707z"/>
		</g>
		<g>
			<path fill="#231815" d="M60.562,51.385v4.251c0,0.673-0.133,1.177-0.4,1.512c-0.266,0.335-0.618,0.504-1.055,0.504
				c-0.423,0-0.767-0.169-1.03-0.504c-0.263-0.335-0.394-0.839-0.394-1.512v-5.094c0-0.805-0.024-1.429-0.072-1.875
				c-0.048-0.444-0.178-0.809-0.39-1.094s-0.546-0.428-1.004-0.428c-0.916,0-1.518,0.359-1.808,1.077
				c-0.291,0.718-0.435,1.749-0.435,3.092v4.321c0,0.664-0.132,1.166-0.395,1.505c-0.263,0.34-0.609,0.511-1.04,0.511
				c-0.424,0-0.771-0.171-1.04-0.511c-0.27-0.339-0.405-0.841-0.405-1.505v-9.146c0-0.602,0.122-1.058,0.364-1.37
				s0.562-0.468,0.958-0.468c0.382,0,0.702,0.146,0.958,0.439c0.256,0.292,0.384,0.695,0.384,1.211v0.305
				c0.485-0.664,1.004-1.152,1.557-1.464c0.554-0.312,1.168-0.469,1.844-0.469c0.704,0,1.308,0.161,1.813,0.48
				c0.506,0.32,0.922,0.805,1.25,1.452c0.472-0.655,0.977-1.142,1.517-1.458c0.539-0.315,1.137-0.475,1.792-0.475
				c0.765,0,1.424,0.173,1.978,0.517c0.553,0.343,0.966,0.834,1.24,1.475c0.239,0.578,0.358,1.487,0.358,2.729v6.241
				c0,0.673-0.133,1.177-0.399,1.512c-0.267,0.335-0.619,0.504-1.056,0.504c-0.423,0-0.77-0.171-1.04-0.511
				c-0.27-0.339-0.405-0.841-0.405-1.505V50.26c0-0.686-0.025-1.236-0.077-1.65c-0.051-0.413-0.19-0.762-0.415-1.042
				c-0.225-0.281-0.567-0.422-1.024-0.422c-0.369,0-0.719,0.125-1.05,0.375c-0.332,0.25-0.589,0.586-0.773,1.007
				C60.665,49.066,60.562,50.019,60.562,51.385z"/>
			<path fill="#231815" d="M71.986,58.049l0.256-0.714L68.8,47.427c-0.212-0.57-0.318-0.984-0.318-1.242
				c0-0.272,0.062-0.527,0.185-0.761s0.292-0.422,0.507-0.562s0.438-0.21,0.671-0.21c0.403,0,0.707,0.146,0.912,0.439
				c0.205,0.292,0.386,0.713,0.543,1.258l2.367,7.871l2.244-7.32c0.178-0.594,0.338-1.059,0.481-1.394
				c0.144-0.336,0.295-0.562,0.456-0.679c0.16-0.118,0.388-0.176,0.681-0.176c0.211,0,0.416,0.064,0.609,0.193
				c0.195,0.128,0.345,0.302,0.451,0.521c0.106,0.218,0.159,0.449,0.159,0.69c-0.027,0.149-0.071,0.359-0.133,0.633
				c-0.062,0.273-0.137,0.551-0.226,0.832l-3.647,10.915c-0.314,0.96-0.621,1.713-0.922,2.26c-0.3,0.546-0.698,0.966-1.193,1.259
				c-0.496,0.294-1.163,0.439-2.003,0.439c-0.82,0-1.435-0.102-1.845-0.304c-0.41-0.204-0.614-0.574-0.614-1.114
				c0-0.367,0.097-0.648,0.292-0.849c0.194-0.198,0.483-0.299,0.866-0.299c0.15,0,0.297,0.023,0.44,0.071
				c0.177,0.046,0.331,0.07,0.461,0.07c0.321,0,0.574-0.055,0.758-0.165c0.185-0.109,0.35-0.297,0.497-0.567
				C71.625,58.968,71.794,58.572,71.986,58.049z"/>
			<path fill="#231815" d="M85.623,54.769l-2.408-10.938v11.852c0,0.656-0.127,1.148-0.384,1.476
				c-0.256,0.329-0.596,0.493-1.02,0.493c-0.409,0-0.744-0.162-1.003-0.486s-0.39-0.818-0.39-1.482V42.098
				c0-0.75,0.17-1.255,0.512-1.517c0.341-0.262,0.803-0.393,1.383-0.393h0.942c0.567,0,0.979,0.059,1.235,0.176
				c0.256,0.117,0.445,0.328,0.568,0.633s0.263,0.801,0.42,1.487l2.183,9.403l2.182-9.403c0.157-0.687,0.297-1.183,0.42-1.487
				s0.312-0.516,0.568-0.633c0.257-0.117,0.668-0.176,1.235-0.176h0.942c0.581,0,1.042,0.131,1.383,0.393
				c0.342,0.262,0.512,0.767,0.512,1.517v13.585c0,0.656-0.127,1.148-0.384,1.476c-0.256,0.329-0.599,0.493-1.03,0.493
				c-0.403,0-0.734-0.164-0.994-0.493c-0.259-0.327-0.389-0.819-0.389-1.476V43.831L89.7,54.769
				c-0.157,0.711-0.285,1.232-0.384,1.564s-0.281,0.635-0.548,0.908c-0.267,0.272-0.635,0.41-1.106,0.41
				c-0.355,0-0.656-0.089-0.902-0.265c-0.245-0.177-0.437-0.399-0.573-0.673s-0.245-0.577-0.323-0.908
				C85.785,55.474,85.705,55.128,85.623,54.769z"/>
			<path fill="#231815" d="M104.679,55.847v-0.409c-0.335,0.483-0.688,0.89-1.056,1.218c-0.369,0.328-0.772,0.571-1.209,0.731
				c-0.437,0.16-0.936,0.24-1.496,0.24c-0.676,0-1.283-0.161-1.819-0.479c-0.536-0.32-0.951-0.762-1.244-1.324
				c-0.349-0.68-0.523-1.655-0.523-2.928V46.56c0-0.64,0.126-1.118,0.379-1.434c0.253-0.317,0.587-0.475,1.004-0.475
				c0.424,0,0.765,0.159,1.024,0.479s0.389,0.796,0.389,1.429v5.117c0,0.742,0.055,1.365,0.164,1.868
				c0.109,0.504,0.306,0.898,0.589,1.184c0.283,0.284,0.667,0.428,1.152,0.428c0.471,0,0.915-0.16,1.332-0.481
				c0.417-0.319,0.721-0.737,0.912-1.252c0.157-0.453,0.236-1.445,0.236-2.976V46.56c0-0.633,0.13-1.108,0.389-1.429
				c0.26-0.32,0.598-0.479,1.015-0.479s0.751,0.157,1.004,0.475c0.253,0.315,0.379,0.794,0.379,1.434v9.264
				c0,0.609-0.121,1.066-0.363,1.371c-0.243,0.304-0.555,0.457-0.937,0.457c-0.383,0-0.699-0.158-0.948-0.475
				C104.803,56.859,104.679,56.417,104.679,55.847z"/>
			<path fill="#231815" d="M118.674,53.47c0,0.882-0.188,1.638-0.563,2.266c-0.375,0.629-0.931,1.105-1.665,1.43
				s-1.627,0.486-2.679,0.486c-1.004,0-1.865-0.177-2.582-0.527c-0.718-0.352-1.247-0.791-1.588-1.318
				c-0.341-0.527-0.512-1.055-0.512-1.586c0-0.352,0.109-0.652,0.328-0.902c0.218-0.25,0.495-0.375,0.83-0.375
				c0.294,0,0.519,0.082,0.676,0.246c0.158,0.164,0.307,0.395,0.451,0.691c0.287,0.569,0.629,0.995,1.029,1.276
				s0.944,0.422,1.634,0.422c0.56,0,1.019-0.143,1.377-0.428s0.539-0.611,0.539-0.979c0-0.562-0.187-0.972-0.559-1.229
				c-0.373-0.258-0.986-0.504-1.839-0.738c-0.962-0.273-1.746-0.559-2.352-0.86c-0.604-0.301-1.087-0.697-1.449-1.188
				c-0.362-0.492-0.543-1.097-0.543-1.815c0-0.64,0.167-1.245,0.502-1.814c0.334-0.569,0.828-1.025,1.48-1.365
				c0.652-0.34,1.44-0.509,2.361-0.509c0.724,0,1.375,0.086,1.952,0.257c0.577,0.172,1.059,0.402,1.445,0.691
				c0.385,0.288,0.679,0.609,0.88,0.96c0.202,0.352,0.303,0.695,0.303,1.031c0,0.366-0.108,0.667-0.323,0.901
				s-0.521,0.352-0.917,0.352c-0.287,0-0.53-0.094-0.732-0.281c-0.202-0.188-0.432-0.468-0.691-0.844
				c-0.212-0.312-0.461-0.562-0.749-0.749s-0.676-0.281-1.168-0.281c-0.505,0-0.925,0.123-1.26,0.369
				c-0.334,0.246-0.501,0.553-0.501,0.919c0,0.336,0.123,0.611,0.369,0.826c0.246,0.214,0.578,0.392,0.994,0.532
				c0.416,0.141,0.99,0.312,1.721,0.516c0.867,0.242,1.576,0.531,2.126,0.866c0.55,0.337,0.966,0.732,1.25,1.189
				C118.532,52.362,118.674,52.884,118.674,53.47z"/>
			<path fill="#231815" d="M122.035,43.163c-0.39,0-0.722-0.136-0.999-0.41c-0.277-0.272-0.416-0.659-0.416-1.159
				c0-0.452,0.142-0.826,0.426-1.117c0.283-0.294,0.613-0.44,0.988-0.44c0.362,0,0.683,0.133,0.963,0.398
				c0.28,0.266,0.421,0.651,0.421,1.159c0,0.493-0.137,0.876-0.41,1.154C122.734,43.025,122.41,43.163,122.035,43.163z
				 M123.418,46.467v9.239c0,0.641-0.134,1.125-0.4,1.452c-0.266,0.329-0.604,0.493-1.014,0.493c-0.41,0-0.742-0.169-0.999-0.504
				s-0.385-0.816-0.385-1.441V46.56c0-0.633,0.128-1.108,0.385-1.429s0.589-0.479,0.999-0.479c0.41,0,0.748,0.159,1.014,0.479
				C123.285,45.451,123.418,45.896,123.418,46.467z"/>
			<path fill="#231815" d="M135.917,53.692c0,0.397-0.104,0.822-0.312,1.276c-0.208,0.453-0.526,0.885-0.953,1.294
				c-0.427,0.41-0.964,0.74-1.613,0.989c-0.649,0.25-1.38,0.375-2.192,0.375c-1.728,0-3.077-0.575-4.047-1.728
				s-1.455-2.695-1.455-4.632c0-1.312,0.222-2.47,0.666-3.478s1.086-1.787,1.927-2.337c0.839-0.551,1.844-0.826,3.012-0.826
				c0.724,0,1.388,0.121,1.992,0.363s1.117,0.555,1.537,0.937c0.42,0.384,0.741,0.791,0.963,1.225
				c0.222,0.434,0.333,0.838,0.333,1.212c0,0.384-0.125,0.707-0.374,0.972c-0.25,0.266-0.552,0.398-0.906,0.398
				c-0.233,0-0.425-0.068-0.579-0.205c-0.154-0.136-0.327-0.357-0.518-0.661c-0.341-0.594-0.698-1.038-1.071-1.336
				c-0.372-0.296-0.845-0.444-1.418-0.444c-0.827,0-1.493,0.369-1.998,1.107c-0.505,0.736-0.758,1.746-0.758,3.026
				c0,0.601,0.065,1.153,0.194,1.656c0.13,0.504,0.318,0.935,0.563,1.288c0.246,0.356,0.543,0.626,0.892,0.809
				c0.348,0.184,0.73,0.275,1.147,0.275c0.56,0,1.039-0.148,1.439-0.444c0.399-0.298,0.753-0.75,1.06-1.358
				c0.171-0.359,0.355-0.641,0.553-0.844c0.198-0.203,0.44-0.305,0.728-0.305c0.341,0,0.625,0.148,0.851,0.445
				C135.805,53.04,135.917,53.356,135.917,53.692z"/>
		</g>
		<g>
			<path fill="#231815" d="M81.874,34.818c0.048,0.029,0.077,0.058,0.077,0.087c0,0.038-0.029,0.076-0.067,0.115
				c-0.183,0.939-0.374,1.726-0.565,2.358l-0.71-0.336c0.259-0.69,0.47-1.533,0.633-2.512L81.874,34.818z M83.014,29.535
				c0.087,0.048,0.135,0.087,0.135,0.125c0,0.077-0.048,0.134-0.144,0.191l-1.017,1.438c0.173,0.172,0.326,0.335,0.479,0.488
				l0.873-1.294l0.614,0.326c0.086,0.048,0.134,0.087,0.134,0.125c0,0.077-0.058,0.134-0.153,0.191l-1.467,1.956
				c0.345-0.02,0.671-0.048,0.988-0.086c-0.077-0.221-0.154-0.432-0.23-0.643l0.71-0.144c0.259,0.632,0.451,1.246,0.565,1.831
				l-0.709,0.153c-0.048-0.191-0.096-0.384-0.145-0.575l-0.642,0.086v4.162h-0.786v-4.047l-1.017,0.145
				c-0.096,0.153-0.163,0.229-0.221,0.229c-0.077,0-0.115-0.058-0.134-0.182l-0.058-0.873c0.269,0,0.528,0,0.777-0.009l0.47-0.71
				c-0.422-0.451-0.892-0.892-1.391-1.333l0.479-0.604c0.115,0.105,0.23,0.201,0.326,0.298l0.949-1.572L83.014,29.535z
				 M84.281,36.323L83.6,36.439c-0.097-0.634-0.202-1.218-0.336-1.755l0.671-0.153C84.089,35.154,84.204,35.749,84.281,36.323z
				 M85.469,34.339c0.106-0.066,0.183-0.105,0.23-0.105c0.02,0,0.201,0.153,0.547,0.461c0.038,0.027,0.057,0.057,0.057,0.096
				c0,0.058-0.019,0.096-0.038,0.115c-0.058,0.038-0.135,0.211-0.23,0.498c-0.23,0.613-0.479,1.055-0.728,1.333
				c-0.298,0.354-0.682,0.651-1.142,0.901l-0.527-0.595c0.297-0.124,0.556-0.269,0.767-0.431c0.191-0.154,0.364-0.355,0.527-0.596
				c0.135-0.211,0.288-0.527,0.441-0.959h-1.131v-0.719H85.469z M87.224,29.421c0.106,0.037,0.163,0.085,0.163,0.123
				c0,0.039-0.067,0.105-0.191,0.193c-0.039,0.066-0.087,0.134-0.134,0.191h1.783v3.558h-4.152v-3.558h1.467
				c0.029-0.058,0.058-0.116,0.086-0.173c0.095-0.212,0.173-0.413,0.239-0.624L87.224,29.421z M87.243,33.735
				c0.096,0.019,0.144,0.057,0.144,0.125c0,0.066-0.067,0.144-0.191,0.22v0.825c0.077,0.134,0.144,0.249,0.22,0.354
				c0.518-0.394,0.969-0.796,1.352-1.218l0.585,0.585c0.039,0.038,0.057,0.086,0.057,0.124c0,0.059-0.095,0.077-0.268,0.077
				c-0.432,0.346-0.873,0.682-1.323,0.997c0.134,0.182,0.269,0.336,0.402,0.451c0.307,0.307,0.739,0.604,1.295,0.91l-0.71,0.643
				c-0.479-0.316-0.862-0.661-1.169-1.035c-0.154-0.173-0.297-0.365-0.441-0.595v0.575c0,0.355-0.096,0.613-0.279,0.786
				c-0.153,0.173-0.527,0.269-1.141,0.269l-0.297-0.786h0.595c0.211,0,0.316-0.134,0.335-0.412V33.63L87.243,33.735z M88.02,31.347
				v-0.671h-2.513v0.671H88.02z M88.02,32.058h-2.513v0.671h2.513V32.058z"/>
			<path fill="#231815" d="M100.454,29.238c0.163,0.019,0.249,0.057,0.249,0.124c0,0.059-0.066,0.144-0.191,0.26v2.291h3.375v0.815
				h-3.375v3.749h4.123v0.863h-8.39v-0.863h3.337v-7.307L100.454,29.238z"/>
			<path fill="#231815" d="M116.157,29.161c0.144,0.02,0.22,0.058,0.22,0.125c0,0.047-0.057,0.125-0.153,0.23v0.633h3.49v0.748
				h-1.688l-0.383,1.313h2.484v0.747h-8.735v-0.747h2.627l-0.422-1.313h-1.793v-0.748h3.566v-1.045L116.157,29.161z M118.66,33.524
				v4.305h-0.825v-0.374h-4.114v0.374h-0.824v-4.305H118.66z M117.835,35.125v-0.853h-4.114v0.853H117.835z M117.835,36.708v-0.863
				h-4.114v0.863H117.835z M116.732,32.211l0.384-1.313h-2.627l0.412,1.313H116.732z"/>
			<path fill="#231815" d="M131.438,29.075c0.134,0.009,0.202,0.039,0.202,0.096s-0.048,0.135-0.144,0.229v0.595h0.854v1.122
				l0.412-0.518c0.077,0.058,0.154,0.115,0.211,0.153l0.882-1.648l0.576,0.287c0.086,0.048,0.134,0.086,0.134,0.125
				c0,0.076-0.058,0.133-0.153,0.182l-0.892,1.467c0.153,0.125,0.288,0.24,0.422,0.346l0.662-1.104l0.614,0.403
				c0.058,0.048,0.096,0.105,0.096,0.163c0,0.057-0.067,0.096-0.192,0.115l-1.247,1.956c0.25-0.02,0.499-0.038,0.739-0.077
				c-0.057-0.191-0.125-0.384-0.202-0.575l0.604-0.144c0.269,0.633,0.451,1.217,0.556,1.755l-0.671,0.153
				c-0.029-0.173-0.067-0.365-0.105-0.557c-0.48,0.086-1.112,0.182-1.918,0.297c-0.067,0.078-0.125,0.106-0.182,0.106
				c-0.058,0-0.096-0.038-0.096-0.116l-0.173-0.747c0.192,0,0.375-0.009,0.566-0.028l0.585-0.988
				c-0.384-0.326-0.796-0.643-1.228-0.949v2.723h-0.854v0.672h3.894v0.748h-3.529c0.489,0.364,0.988,0.662,1.496,0.873
				c0.527,0.229,1.266,0.469,2.215,0.699l-0.892,0.824c-0.786-0.287-1.4-0.584-1.86-0.873c-0.46-0.268-0.902-0.603-1.324-1.016
				v2.148h-0.825v-2.091c-0.479,0.432-0.958,0.776-1.429,1.046c-0.537,0.307-1.189,0.564-1.946,0.785l-0.748-0.747
				c0.921-0.23,1.716-0.499,2.397-0.825c0.413-0.191,0.854-0.46,1.323-0.824h-3.385v-0.748h3.788v-0.672h-0.777
				c0.01,0.058,0.02,0.106,0.029,0.145l-0.681,0.153c-0.019-0.182-0.048-0.374-0.077-0.575c-0.489,0.115-1.16,0.259-2.023,0.422
				c-0.057,0.077-0.124,0.115-0.182,0.115s-0.086-0.038-0.086-0.125l-0.173-0.738c0.173-0.01,0.345-0.029,0.508-0.048l0.766-1.208
				c-0.364-0.336-0.747-0.662-1.169-0.988l0.451-0.565c0.077,0.067,0.163,0.135,0.25,0.201l0.834-1.581l0.584,0.287
				c0.086,0.048,0.134,0.086,0.134,0.125c0,0.076-0.058,0.133-0.153,0.182l-0.873,1.429c0.115,0.115,0.23,0.22,0.327,0.316
				l0.623-0.959l0.614,0.403c0.058,0.038,0.096,0.096,0.096,0.162c0,0.058-0.067,0.087-0.183,0.105l-1.381,1.977
				c0.307-0.039,0.614-0.087,0.902-0.145c-0.048-0.211-0.106-0.432-0.163-0.662l0.604-0.152c0.182,0.604,0.316,1.16,0.413,1.658
				v-3.836h0.824v-0.969L131.438,29.075z M131.601,31.568v-0.854h-0.969v0.854H131.601z M131.601,32.287h-0.969v0.892h0.969V32.287z
				"/>
		</g>
	</g>
</g>
</svg>
