<?xml version="1.0" encoding="utf-8"?>
<!-- Generator: Adobe Illustrator 16.0.0, SVG Export Plug-In . SVG Version: 6.00 Build 0)  -->
<!DOCTYPE svg PUBLIC "-//W3C//DTD SVG 1.1//EN" "http://www.w3.org/Graphics/SVG/1.1/DTD/svg11.dtd">
<svg version="1.1" xmlns="http://www.w3.org/2000/svg" xmlns:xlink="http://www.w3.org/1999/xlink" x="0px" y="0px" width="150px"
	 height="40px" viewBox="0 0 150 40" enable-background="new 0 0 150 40" xml:space="preserve">
<g id="圖層_2" display="none">
	<rect x="-338.572" y="-974.09" display="inline" fill="#DCDDDD" width="1834" height="1234"/>
</g>
<g id="圖層_1">
	<g enable-background="new    ">
		<g>
			<g>
				<defs>
					<path id="SVGID_185_" d="M-76.948-132.975c0,21.236-17.219,38.465-38.468,38.465c-21.246,0-38.467-17.229-38.467-38.465
						c0-21.244,17.221-38.469,38.467-38.469C-94.167-171.443-76.948-154.219-76.948-132.975z"/>
				</defs>
				<clipPath id="SVGID_1_">
					<use xlink:href="#SVGID_185_"  overflow="visible"/>
				</clipPath>
				<g clip-path="url(#SVGID_1_)">
					<defs>
						<rect id="SVGID_187_" x="-360.295" y="-433.955" width="489.244" height="616.137"/>
					</defs>
					<clipPath id="SVGID_2_">
						<use xlink:href="#SVGID_187_"  overflow="visible"/>
					</clipPath>
				</g>
			</g>
		</g>
	</g>
	<g>
		<path fill="#B81546" d="M63.473,35.904c0.031-1.398,0.096-9.23,0.096-11.535v-3.574c0-0.742-0.096-7.469-0.096-7.962
			c6.205,0,10.166,0.164,12.861,0.812c3.25,0.814,6.107,2.729,6.107,6.408c0,4.221-3.928,8.796-11.789,10.103v0.868
			c0,0.657,0,4.199,0.064,4.881H63.473z M70.653,25.568c1.883-0.294,4.416-1.918,4.416-4.609c0-1.824-0.939-3.316-4.416-3.573
			V25.568z"/>
		<path fill="#B81546" d="M57.606,9.137c0,2.05-1.658,3.714-3.709,3.714c-2.049,0-3.713-1.664-3.713-3.714s1.664-3.705,3.713-3.705
			C55.948,5.432,57.606,7.087,57.606,9.137"/>
		<path fill="#B81546" d="M96.61,33.469c-0.316,0.238-0.713,0.528-1.18,0.86c-0.467,0.343-0.912,0.609-1.324,0.799
			c-0.576,0.261-1.174,0.46-1.797,0.584c-0.623,0.125-1.305,0.192-2.045,0.192c-1.746,0-3.205-0.54-4.383-1.617
			c-1.178-1.088-1.766-2.459-1.766-4.141c0-1.339,0.297-2.436,0.9-3.287c0.6-0.853,1.447-1.521,2.549-2.011
			c1.09-0.494,2.441-0.839,4.057-1.052c1.611-0.201,3.287-0.356,5.02-0.451V23.24c0-1.007-0.412-1.708-1.24-2.094
			c-0.83-0.396-2.051-0.584-3.668-0.584c-0.967,0-2.002,0.175-3.102,0.514c-1.104,0.35-1.896,0.612-2.377,0.79h-0.537V17.44
			c0.621-0.165,1.631-0.362,3.035-0.582c1.396-0.22,2.805-0.34,4.209-0.34c3.346,0,5.766,0.522,7.252,1.548
			c1.488,1.037,2.234,2.65,2.234,4.854v12.487H96.61V33.469z M96.61,30.602v-3.812c-0.795,0.07-1.66,0.156-2.584,0.268
			c-0.928,0.123-1.629,0.254-2.109,0.402c-0.592,0.187-1.039,0.454-1.352,0.814c-0.309,0.348-0.465,0.816-0.465,1.383
			c0,0.389,0.035,0.69,0.1,0.938c0.064,0.237,0.225,0.462,0.488,0.688c0.252,0.211,0.549,0.375,0.898,0.474
			c0.35,0.102,0.895,0.157,1.639,0.157c0.588,0,1.184-0.118,1.787-0.357C95.616,31.31,96.153,31.004,96.61,30.602"/>
		<path fill="#B81546" d="M132.645,23.147h-0.525c-0.25-0.085-0.652-0.154-1.207-0.202c-0.557-0.038-1.018-0.061-1.389-0.061
			c-0.834,0-1.574,0.053-2.217,0.165c-0.645,0.107-1.334,0.296-2.072,0.558v12.297h-5.902V17.538h5.902v2.693
			c1.293-1.113,2.422-1.845,3.379-2.218c0.957-0.36,1.838-0.547,2.643-0.547c0.205,0,0.441,0.006,0.701,0.018
			c0.26,0.011,0.49,0.028,0.688,0.054V23.147z"/>
		<path fill="#B81546" d="M56.92,33.652c0,1.592-1.291,2.885-2.881,2.885c-1.592,0-2.883-1.293-2.883-2.885v-14.4
			c0-1.596,1.291-2.882,2.883-2.882c1.59,0,2.881,1.286,2.881,2.882V33.652z"/>
		<path fill="#B81546" d="M113.497,12.833c0,1.681-1.361,3.041-3.041,3.041c-1.676,0-3.035-1.36-3.035-3.041
			c0-1.67,1.359-3.029,3.035-3.029C112.135,9.804,113.497,11.163,113.497,12.833"/>
		<rect x="107.717" y="17.467" fill="#B81546" width="5.766" height="18.438"/>
		<path fill="#B81546" d="M42.215,16.037l-3.932-8.02c-1.971-4.032-6.836-5.7-10.865-3.723L9.55,13.046
			c-4.028,1.966-5.692,6.837-3.72,10.859l3.928,8.03c1.973,4.021,6.836,5.689,10.864,3.721l6.387-3.133
			c5.262,4.978,12.646,1.659,12.646,1.659c-3.836,0.594-5.955-2.674-6.826-4.508l5.664-2.769
			C42.52,24.932,44.188,20.07,42.215,16.037"/>
		<path fill="#FFFFFF" d="M27.596,26.831c-0.01-0.008-0.021-0.015-0.033-0.022c-0.004,0.016-0.008,0.03-0.01,0.046l-0.031-0.068
			c-5.033-2.89-9.646,0.069-12.273-4c-1.269-1.971-0.822-5.011,0.875-6.55c2.051-1.871,3.875-1.875,6.008-0.957
			c0.654-2.226,1.818-3.631,4.561-4.021c2.271-0.329,4.9,1.268,5.607,3.49c1.465,4.626-3.756,6.289-4.729,12.017L27.596,26.831z"/>
		<path fill="#B81546" d="M142.219,5.432c0.467,0,0.92,0.121,1.369,0.357c0.443,0.238,0.791,0.586,1.039,1.025
			c0.25,0.45,0.373,0.919,0.373,1.398c0,0.485-0.121,0.94-0.365,1.385c-0.246,0.445-0.59,0.784-1.031,1.033
			c-0.441,0.247-0.902,0.367-1.385,0.367s-0.943-0.12-1.387-0.367c-0.439-0.249-0.783-0.588-1.031-1.033
			c-0.244-0.444-0.367-0.899-0.367-1.385c0-0.479,0.125-0.948,0.373-1.398c0.248-0.439,0.596-0.787,1.043-1.025
			C141.293,5.553,141.752,5.432,142.219,5.432 M142.219,5.889c-0.393,0-0.773,0.098-1.143,0.302
			c-0.371,0.206-0.662,0.483-0.871,0.863c-0.209,0.371-0.311,0.757-0.311,1.159c0,0.4,0.1,0.783,0.305,1.157
			c0.205,0.365,0.494,0.653,0.865,0.856c0.365,0.207,0.754,0.309,1.154,0.309s0.783-0.102,1.154-0.309
			c0.367-0.203,0.654-0.491,0.857-0.856c0.205-0.374,0.309-0.757,0.309-1.157c0-0.402-0.105-0.788-0.312-1.159
			c-0.209-0.38-0.496-0.657-0.869-0.863C142.989,5.986,142.606,5.889,142.219,5.889 M140.999,9.755V6.76h1.029
			c0.348,0,0.607,0.029,0.762,0.079c0.156,0.057,0.281,0.153,0.377,0.29c0.094,0.138,0.141,0.285,0.141,0.441
			c0,0.215-0.078,0.41-0.236,0.574c-0.152,0.164-0.359,0.252-0.621,0.272c0.107,0.037,0.193,0.094,0.258,0.159
			c0.119,0.118,0.268,0.31,0.439,0.589l0.367,0.59h-0.592l-0.268-0.478c-0.207-0.369-0.375-0.598-0.502-0.691
			c-0.09-0.071-0.219-0.108-0.389-0.108h-0.283v1.277H140.999z M141.481,8.064h0.586c0.281,0,0.471-0.035,0.576-0.125
			c0.1-0.08,0.148-0.188,0.148-0.325c0-0.097-0.021-0.17-0.07-0.246c-0.051-0.065-0.119-0.121-0.207-0.149
			c-0.084-0.035-0.248-0.054-0.482-0.054h-0.551V8.064z"/>
	</g>
</g>
</svg>
