<?xml version="1.0" encoding="utf-8"?>
<!-- Generator: Adobe Illustrator 16.0.0, SVG Export Plug-In . SVG Version: 6.00 Build 0)  -->
<!DOCTYPE svg PUBLIC "-//W3C//DTD SVG 1.1//EN" "http://www.w3.org/Graphics/SVG/1.1/DTD/svg11.dtd">
<svg version="1.1" xmlns="http://www.w3.org/2000/svg" xmlns:xlink="http://www.w3.org/1999/xlink" x="0px" y="0px" width="110px"
	 height="110.001px" viewBox="0 0 110 110.001" enable-background="new 0 0 110 110.001" xml:space="preserve">
<g id="圖層_2" display="none">
	<rect x="-320.039" y="-786.11" display="inline" fill="#DCDDDD" width="1834" height="1234"/>
</g>
<g id="圖層_1">
	<g enable-background="new    ">
		<g>
			<g>
				<defs>
					<path id="SVGID_185_" d="M-58.415,55.005c0,21.236-17.219,38.465-38.468,38.465c-21.246,0-38.467-17.229-38.467-38.465
						c0-21.244,17.221-38.469,38.467-38.469C-75.633,16.536-58.415,33.761-58.415,55.005z"/>
				</defs>
				<clipPath id="SVGID_1_">
					<use xlink:href="#SVGID_185_"  overflow="visible"/>
				</clipPath>
				<g clip-path="url(#SVGID_1_)">
					<defs>
						<rect id="SVGID_187_" x="-341.761" y="-245.976" width="489.244" height="616.137"/>
					</defs>
					<clipPath id="SVGID_2_">
						<use xlink:href="#SVGID_187_"  overflow="visible"/>
					</clipPath>
				</g>
			</g>
		</g>
	</g>
	<g>
		<path fill="#005BAD" d="M55.02,5.019c27.521,0,49.98,22.461,49.98,49.98c0,27.523-22.459,49.982-49.98,49.982
			C27.461,104.981,5,82.522,5,54.999C5,27.479,27.461,5.019,55.02,5.019z"/>
		<path fill="#FFFFFF" d="M55.02,18.208c20.291,0,36.834,16.527,36.834,36.791c0,20.285-16.543,36.834-36.834,36.834
			c-20.285,0-36.834-16.549-36.834-36.834C18.186,34.735,34.735,18.208,55.02,18.208z"/>
		<path fill="#FFFFFF" d="M98.792,47.31v-0.73l0.131,0.555c0,0.076,0,0.1-0.072,0.135L98.792,47.31L98.792,47.31z M98.792,45.134
			l0.033,0.135l0.42-0.174c0,0.93,0.041,1.779,0.07,2.51l0.66,0.061c-0.236-1.385-0.236-2.73-0.037-4.012
			c0.037,0,0.037,0.037,0.068,0.037l0.066-0.73c-0.43-0.295-0.855-0.85-1.281-1.68v1.127c0.297,0.418,0.523,0.715,0.652,0.848
			c-0.062,0.557-0.129,1.09-0.158,1.584L98.792,42.8V45.134z M98.792,41.28v1.127c-0.068-0.068-0.1-0.141-0.166-0.201l0.166,0.594
			v2.334l-0.727-2.963l0.461-0.158c-0.326-0.535-0.656-1.15-0.99-1.92v-0.414l0.395-0.371C98.2,40.093,98.497,40.726,98.792,41.28
			L98.792,41.28z M98.792,46.579l-1.256-5.025v2.852l0.168-0.061l0.559,2.371v0.023l-0.727,0.271v0.756l1.256-0.457V46.579
			L98.792,46.579z M97.536,46.122v-0.76c0.168,0.031,0.299,0.07,0.395,0.102l-0.125,0.719
			C97.735,46.146,97.635,46.146,97.536,46.122z M97.536,39.679v0.414c-0.029-0.057-0.029-0.096-0.061-0.156v-0.197L97.536,39.679
			L97.536,39.679z M97.536,41.554v2.852l-0.061,0.039V43.69l0.031-0.037l-0.031-0.236V41.22L97.536,41.554L97.536,41.554z
			 M97.536,45.362v0.76c-0.029,0-0.029,0-0.061-0.037v-0.754C97.506,45.362,97.506,45.362,97.536,45.362L97.536,45.362z
			 M97.536,47.011v0.756l-0.061,0.035v-0.768L97.536,47.011z M97.475,39.739v0.197c-0.039-0.039-0.039-0.1-0.066-0.135
			L97.475,39.739L97.475,39.739z M97.475,41.22v2.197l-0.527-2.156c-0.035-0.041-0.035-0.041-0.035-0.041l-0.127,0.061v-0.754
			l0.396-0.156c0.027,0,0.059,0,0.098,0.061L97.475,41.22L97.475,41.22z M97.475,43.69v0.754l-0.66,0.232l0.133,0.457
			c0.164,0.1,0.361,0.16,0.527,0.197v0.754c-0.098-0.033-0.234-0.061-0.332-0.098l0.266,1.047c0,0,0,0.039,0.027,0h0.039v0.768
			l-0.332,0.123c-0.031,0-0.062-0.023-0.098-0.062l-0.26-1.088v-2.826L97.475,43.69L97.475,43.69z M96.786,43.099
			c0.197-0.238,0.326-0.434,0.424-0.633l-0.424-0.424V43.099L96.786,43.099z M96.786,35.401v-1.377l0.424,0.811
			c0.07,0.1,0.031,0.176-0.027,0.236L96.786,35.401z M96.786,34.024v1.377l-0.465,0.363v-0.855l0.168-0.133
			c0.029-0.041,0.029-0.061,0.029-0.102l-0.197-0.332v-1.012l0.07-0.076L96.786,34.024L96.786,34.024z M96.786,40.526v0.754
			l-0.465,0.176v-0.768L96.786,40.526L96.786,40.526z M96.786,42.042v1.057c0,0.023,0,0.023-0.033,0.061l-0.432-0.494v-0.037
			c0.197-0.221,0.365-0.457,0.465-0.615V42.042L96.786,42.042z M96.786,43.948l-0.131,0.061l-0.334-1.305v2.191l0.465,1.879V43.948
			L96.786,43.948z M96.321,47.767v-1.324l0.297,1.125c0,0.059,0,0.098-0.061,0.137L96.321,47.767z M96.321,33.331v1.012
			l-0.299-0.617v-0.137L96.321,33.331L96.321,33.331z M96.321,34.909v0.855l-0.299,0.258V34.38l0.27,0.555L96.321,34.909
			L96.321,34.909z M96.321,40.688v0.768l-0.227,0.098c-0.031,0-0.031,0-0.031,0.023l0.258,1.088v-0.037v0.037l0,0v0.039v2.191
			l-0.299-1.303v-2.768L96.321,40.688L96.321,40.688z M96.321,46.442v1.324l-0.299,0.135v-2.807L96.321,46.442L96.321,46.442z
			 M96.022,32.899v-0.557c0.041,0.035,0.072,0.035,0.1,0.061L96.022,32.899z M96.022,32.343v0.557l-0.029,0.137
			c-0.096-0.072-0.229-0.102-0.322-0.137v-0.656C95.797,32.276,95.897,32.302,96.022,32.343L96.022,32.343z M96.022,33.589v0.137
			l-0.057-0.096L96.022,33.589L96.022,33.589z M96.022,34.38v1.643l-0.352,0.264v-0.857l0.195-0.125l-0.195-0.369v-1.109
			l0.027-0.039L96.022,34.38L96.022,34.38z M96.022,40.825v2.768l-0.352-1.355v-1.275L96.022,40.825L96.022,40.825z M96.022,45.095
			v2.807l-0.352,0.121V47.21l0.254-0.1c0,0,0.041-0.037,0.041-0.076l-0.295-1.086v-2.197L96.022,45.095z M95.67,32.243v0.656
			c-0.041,0-0.068-0.037-0.104-0.037c0.035,0.195,0.035,0.373,0.035,0.527h-0.527l0,0l-0.135,0.533
			c-0.033-0.035-0.062-0.035-0.133-0.074v-0.689c0.1,0.035,0.197,0.096,0.268,0.131c0-0.232,0-0.453,0-0.689
			c-0.037-0.027-0.135-0.061-0.268-0.158v-0.754c0.07,0.061,0.133,0.121,0.197,0.16c0-0.26,0-0.434-0.027-0.533l0.521-0.021
			c0,0.158,0.031,0.455,0.031,0.885C95.602,32.206,95.629,32.206,95.67,32.243L95.67,32.243z M95.67,33.825l-0.398,0.318
			l0.398,0.791V33.825L95.67,33.825z M95.67,35.429v0.857l-0.367,0.328v0.062l0.068,0.729c-0.17,0.098-0.334,0.234-0.564,0.334
			v-2.016l0.17,0.299l0.258-0.23l-0.428-0.758v-0.518l0.268-0.195l0.596,1.145V35.429L95.67,35.429z M95.67,40.962v1.275
			l-0.268-1.078c0-0.074,0.027-0.098,0.068-0.135L95.67,40.962L95.67,40.962z M95.67,43.751l-0.494-2.002
			c0-0.072-0.041-0.098-0.102-0.072l-0.268,0.096v0.834h0.035c0-0.041,0,0,0.035,0l0.793,3.342V43.751L95.67,43.751z M95.67,47.21
			v0.812l-0.863,0.332v-0.826l0.197-0.1l-0.197-0.75v-2.199l0.691,2.789L95.67,47.21L95.67,47.21z M94.807,31.12v-1.012
			c0.133,0.123,0.23,0.295,0.328,0.418L94.807,31.12z M94.807,30.108v1.012l0,0c-0.295-0.359-0.553-0.793-0.818-1.281
			c0,0-0.031,0-0.068,0.033l-0.162,0.139l0.555,1.109l-0.424,0.332l-0.594-1.084l-0.227,0.197l0.594,1.123l-0.428,0.359l-0.592-1.15
			l-0.236,0.199l1.65,3.123c0-0.273,0.031-0.494,0.031-0.789c-0.461-0.373-0.725-0.594-0.82-0.73l0.295-0.557
			c0.162,0.199,0.326,0.396,0.494,0.523c0-0.195,0-0.365,0-0.424h0.49c-0.137-0.1-0.234-0.195-0.293-0.295l0.229-0.555
			c0.125,0.098,0.227,0.195,0.324,0.295v0.754c-0.062-0.039-0.127-0.1-0.26-0.166c0.031,0.127,0.031,0.391,0.031,0.76
			c0.068,0.061,0.166,0.098,0.229,0.123v0.689c-0.062-0.023-0.16-0.1-0.229-0.123c0,0.197-0.031,0.396-0.031,0.596l-0.49-0.08
			l0.75,1.482v2.016c-0.229,0.121-0.494,0.219-0.787,0.318l-0.162-0.713c0.455-0.176,0.721-0.295,0.822-0.395
			c0.029-0.039,0.064-0.076,0.029-0.141l-2.957-5.713c-0.035-0.041-0.066-0.041-0.098-0.041l-0.594,0.533v-0.928l0.721-0.594
			c0.072-0.031,0.1-0.031,0.131,0.064l0.197,0.371l1.879-1.547c0.1-0.07,0.166-0.033,0.195,0.066
			C94.383,29.417,94.608,29.772,94.807,30.108L94.807,30.108z M94.807,34.517l-0.16,0.158l0.16,0.359V34.517L94.807,34.517z
			 M94.807,41.772v0.834l-0.396,0.154l0.396,1.719v2.199L93.92,42.96l-0.426,0.139c-0.031,0-0.031,0.023-0.031,0.061l1.084,4.445
			h0.031l0.229-0.076v0.826l-0.494,0.16c-0.029,0.039-0.059,0-0.098-0.059l-1.416-5.828c0-0.062,0-0.094,0.07-0.094L94.807,41.772
			L94.807,41.772z M91.061,37.009c0.166-0.059,0.326-0.199,0.496-0.354c0.025-0.08,0.062-0.141,0.098-0.197l1.246,2.365l0.494-0.395
			l-1.385-2.664c0.041-0.066,0.07-0.137,0.1-0.201l1.42,1.148l0.293-0.92l-1.84-3.549l-0.496,0.398l1.482,2.787l-0.959-0.754l0,0
			l-0.195-0.354c-0.033,0.219-0.098,0.455-0.195,0.689l-0.559-1.123v1.381l0.227,0.496c-0.061,0.129-0.156,0.223-0.227,0.324V37.009
			L91.061,37.009z M91.061,26.253v-1.381l0.461,0.568c0.061,0.023,0.061,0.098,0,0.123L91.061,26.253z M91.061,24.872v1.381
			l-1.049,1.445v-1.404l0.062,0.1l0.66-0.855c0-0.037,0-0.037,0-0.074l-0.723-0.791v-0.988L91.061,24.872L91.061,24.872z
			 M91.061,30.661v0.928l-0.195,0.123l-0.33-0.615L91.061,30.661L91.061,30.661z M91.061,33.888v1.381l-1.049-2.033v-1.229
			l0.033-0.059L91.061,33.888L91.061,33.888z M91.061,36.089c-0.1,0.07-0.168,0.129-0.227,0.129
			c-0.168,0.039-0.299-0.035-0.467-0.23c-0.195-0.322-0.293-0.781-0.322-1.373l-0.033,0.021v1.979
			c0.129,0.195,0.295,0.336,0.49,0.436c0.195,0.057,0.363,0.02,0.559-0.041V36.089z M90.012,23.685v0.988l-0.098-0.1l-0.434,0.594
			V23.13L90.012,23.685L90.012,23.685z M90.012,26.294v1.404l-0.531,0.729v-1.186l0.236-0.295l-0.236-0.26v-0.949L90.012,26.294
			L90.012,26.294z M90.012,32.007v1.229l-0.463-0.857L90.012,32.007L90.012,32.007z M90.012,34.636v1.979
			c-0.068-0.1-0.137-0.156-0.197-0.297c-0.137-0.295-0.266-0.721-0.334-1.209v-0.199L90.012,34.636z M89.481,23.13v2.037
			l-0.127,0.176v-1.184l0.096-0.1l-0.096-0.141v-0.947L89.481,23.13L89.481,23.13z M89.481,25.737v0.949l-0.127-0.168v-0.955
			L89.481,25.737L89.481,25.737z M89.481,27.241v1.186l-0.127,0.199V27.44L89.481,27.241L89.481,27.241z M89.481,34.909v0.199
			c0-0.037,0-0.098-0.031-0.174L89.481,34.909z M89.354,22.972v0.947l-0.695-0.789c-0.029,0-0.029,0-0.029,0.037l-0.33,0.422v-1.176
			l0.195-0.27c0.035-0.061,0.064-0.061,0.135,0L89.354,22.972L89.354,22.972z M89.354,24.159v1.184l-0.1,0.121l0.1,0.1v0.955
			l-0.467-0.523l-0.588,0.814v-1.174l0.098-0.172l-0.098-0.121v-0.965l0.49,0.568L89.354,24.159L89.354,24.159z M89.354,27.44v1.186
			l-0.17,0.232c-0.029,0.027-0.061,0.027-0.129,0l-0.756-0.861v-0.99l0.729,0.828h0.027L89.354,27.44L89.354,27.44z M88.299,30.067
			v-0.846l0.33,0.393L88.299,30.067L88.299,30.067z M88.299,21.985v-0.199l0.061,0.059L88.299,21.985z M88.299,21.786v0.199
			l-0.297,0.428l-0.332-0.395v-0.963L88.299,21.786L88.299,21.786z M88.299,22.413v1.176l-0.297,0.43l0.297,0.359v0.965
			l-0.629-0.729v-1.322L88.299,22.413L88.299,22.413z M88.299,25.636v1.174l-0.098,0.102l0.098,0.096v0.99l-0.459-0.518l-0.17,0.219
			v-1.404l0.07,0.1L88.299,25.636L88.299,25.636z M88.299,29.222v0.846l-0.037,0.064l-0.592-0.652v-0.951L88.299,29.222
			L88.299,29.222z M87.67,31.515V30.96l0.197,0.236L87.67,31.515z M87.67,21.056v0.963l-0.256-0.273l-1.219,1.686v-1.188
			l0.754-1.012l-0.623-0.691l0.395-0.533L87.67,21.056L87.67,21.056z M87.67,23.292l-1.475,2.051v0.258l1.146,1.346l-0.453,0.652
			l-0.693-0.752v0.988l0.299,0.334l-0.299,0.395v1.703l1.316,1.482l0.158-0.234V30.96l-1.316-1.445l0.596-0.828l0.721,0.793v-0.951
			l-0.328-0.396l0.328-0.434v-1.404l-0.721-0.793v-0.037l0.662-0.891l0.059,0.041V23.292L87.67,23.292z M86.196,24.454v-0.988
			l0.525,0.594l-0.395,0.555L86.196,24.454z M86.196,22.243v1.188l-0.037,0.035h0.037v0.988l-0.395-0.473l-1.383,1.916
			c0.326,0.16,0.594,0.256,0.793,0.324l-0.199,0.766c-0.197-0.076-0.525-0.199-0.92-0.436c-0.33-0.135-0.594-0.299-0.861-0.424
			v-0.883c0.199,0.098,0.367,0.195,0.566,0.318l1.51-2.098l-0.562-0.658l0.395-0.527l0.562,0.652L86.196,22.243L86.196,22.243z
			 M86.196,25.343l-0.068,0.059c-0.027,0.062-0.027,0.137,0.031,0.162l0.037,0.037V25.343L86.196,25.343z M86.196,26.847
			l-0.561-0.625l-0.396,0.529l0.957,1.084V26.847L86.196,26.847z M86.196,28.563v1.703l-2.176-2.469l0.367-0.516l1.514,1.674
			L86.196,28.563L86.196,28.563z M83.231,20.144v-0.234l0.1,0.062L83.231,20.144L83.231,20.144z M83.231,19.353v-0.654l0.531,0.357
			l-0.264,0.496L83.231,19.353L83.231,19.353z M83.231,17.97v-1.281l0.467,0.293l-0.172,0.359l0.922,0.629l-0.256,0.594l-0.92-0.654
			L83.231,17.97z M83.231,16.688v1.281l-0.127,0.295l-0.492-0.355l0.166-0.334l-0.727-0.533v-0.713l0.955,0.652l0.166-0.357
			L83.231,16.688L83.231,16.688z M83.231,18.698l-0.887-0.631c0.068-0.059,0.137-0.137,0.197-0.197l-0.355-0.553
			c-0.037,0.023-0.102,0.1-0.135,0.16v1.244l0.062-0.158l1.117,0.789V18.698L83.231,18.698z M83.231,19.909v0.234l-0.127,0.322
			l-1.053-0.756v-0.654L83.231,19.909L83.231,19.909z M83.231,25.245v0.883c-0.195-0.133-0.354-0.23-0.521-0.33l0.199-0.75
			C83.036,25.106,83.135,25.167,83.231,25.245L83.231,25.245z M82.051,23.03v-0.256c0.033,0.033,0.033,0.098,0.062,0.127
			c0,0.07,0,0.102-0.029,0.102C82.084,23.03,82.051,23.03,82.051,23.03L82.051,23.03z M82.051,22.12v-0.67l0.561,0.395l-0.23,0.498
			L82.051,22.12L82.051,22.12z M82.051,20.896l0.658,0.455l0.227-0.494l-0.885-0.613V20.896L82.051,20.896z M82.051,16.032v-0.137
			l0.033,0.039L82.051,16.032z M82.051,15.896v0.137l-0.1,0.229l0.1,0.068v0.713l-0.359-0.219l-0.17,0.355l-0.492-0.355l0.166-0.367
			l-0.424-0.289v-0.725l0.65,0.453l0.17-0.318L82.051,15.896L82.051,15.896z M82.051,17.478c-0.064,0.059-0.164,0.135-0.234,0.234
			l-0.92-0.67c0.033-0.02,0.072-0.061,0.133-0.094l-0.258-0.492v1.18l0.85,0.592l-0.199,0.395l-0.65-0.453v0.652l0.424,0.336
			l-0.166,0.395l-0.258-0.199v0.654l0.029,0.039l-0.029,0.098v1.049l1.279,0.928v-0.67l-0.924-0.652l0.195-0.436l0.729,0.533v-0.652
			l-0.529-0.365l0.195-0.391l0.334,0.223v-0.654l-0.135-0.061l0.135-0.273V17.478L82.051,17.478z M82.051,22.774v0.256
			c-0.334,0.199-0.758,0.363-1.279,0.4v-0.695c0.096,0,0.197-0.029,0.295-0.029c0.031-0.094,0-0.129-0.037-0.168l-0.258-0.195
			v-0.695l1.115,0.791C81.952,22.538,81.987,22.675,82.051,22.774L82.051,22.774z M80.772,24.812v-0.83
			c0.227,0.197,0.453,0.396,0.75,0.572l-0.424,0.553C80.999,25.007,80.868,24.911,80.772,24.812z M80.772,15.442v0.725l-0.467-0.297
			l0.268-0.568L80.772,15.442L80.772,15.442z M80.772,16.456v1.18l-0.1-0.061c-0.035-0.039-0.07-0.039-0.1,0.037l-0.131,0.318
			l0.33,0.238v0.652l-0.525-0.357v-1.74c0.131-0.1,0.293-0.234,0.453-0.361L80.772,16.456L80.772,16.456z M80.772,19.353v0.654
			l-0.525-0.355v-0.656L80.772,19.353L80.772,19.353z M80.772,20.144v1.049l-0.525-0.355v-0.67l0.391,0.299L80.772,20.144
			L80.772,20.144z M80.772,21.647v0.695l-0.525-0.357v-0.693L80.772,21.647L80.772,21.647z M80.772,22.735v0.695
			c-0.17,0.035-0.367,0.035-0.525,0.035v-0.691C80.405,22.774,80.602,22.774,80.772,22.735L80.772,22.735z M80.772,23.981v0.83
			c-0.199-0.16-0.367-0.336-0.525-0.533v-0.812C80.377,23.665,80.573,23.823,80.772,23.981z M80.247,16.724v1.74h-0.041
			l-0.156,0.357l0.197,0.174v0.656l-0.434-0.299l-0.16,0.33c0,0.068,0,0.094,0.031,0.127l0.562,0.357v0.67l-1.156-0.791v-0.559
			l0.82-1.852c-0.131,0.039-0.295,0.076-0.453,0.098l-0.137-0.691C79.616,17.022,79.952,16.923,80.247,16.724L80.247,16.724z
			 M80.247,21.292l-1.156-0.791v0.691l1.156,0.793V21.292L80.247,21.292z M80.247,22.774v0.691h-0.041h0.041v0.812
			c-0.268-0.26-0.494-0.555-0.762-0.885c-0.127-0.027-0.266-0.027-0.395-0.064V21.45c0.199,0.494,0.395,0.928,0.594,1.256
			c0.168,0.029,0.295,0.029,0.494,0.068C80.178,22.774,80.206,22.774,80.247,22.774L80.247,22.774z M79.09,17.317l0.129-0.336
			l-0.129-0.1V17.317L79.09,17.317z M79.09,16.29v-0.812l0.82,0.588l-0.295,0.623L79.09,16.29L79.09,16.29z M79.09,14.983
			l0.82,0.553l0.268-0.629l-1.088-0.754V14.983z M79.09,14.153v0.83l-0.82-0.594l0.264-0.631L79.09,14.153L79.09,14.153z
			 M79.09,15.478l-1.018-0.689v0.809l1.018,0.693V15.478L79.09,15.478z M79.09,16.882v0.436l-0.127,0.295l-0.891-0.59V16.19
			L79.09,16.882L79.09,16.882z M79.09,19.487v0.559h-0.031c-0.096-0.102-0.133-0.199-0.068-0.336L79.09,19.487L79.09,19.487z
			 M79.09,20.501v0.691l-0.594-0.395l0.232-0.555L79.09,20.501L79.09,20.501z M79.09,21.45v1.879
			c-0.326-0.1-0.654-0.232-1.018-0.396v-0.789c0.295,0.172,0.592,0.295,0.951,0.469c-0.16-0.369-0.328-0.729-0.49-1.123l0.457-0.297
			C79.024,21.292,79.059,21.351,79.09,21.45L79.09,21.45z M78.073,19.944v-0.928l0.227,0.174c0.068,0.025,0.068,0.102,0.068,0.125
			L78.073,19.944L78.073,19.944z M78.073,18.405l0.424,0.293l0.295-0.631l-0.719-0.492V18.405z M78.073,14.788v0.809l-0.396-0.256
			l0.297-0.633L78.073,14.788L78.073,14.788z M78.073,16.19v0.832l-0.561-0.398v-0.363l0.164-0.365L78.073,16.19L78.073,16.19z
			 M78.073,17.575v0.83l-0.561-0.396v-0.83L78.073,17.575L78.073,17.575z M78.073,19.017v0.928l-0.561,1.287v-1.48l0.098-0.199
			c0-0.041,0-0.041-0.033-0.041l-0.064-0.059v-0.83L78.073,19.017L78.073,19.017z M78.073,22.144v0.789
			c-0.168-0.061-0.363-0.197-0.561-0.295v-0.555l0.033-0.238C77.709,21.944,77.905,22.044,78.073,22.144z M77.512,16.261v0.363
			l-0.131-0.1L77.512,16.261L77.512,16.261z M77.512,17.179v0.83l-0.588-0.434l0.295-0.627L77.512,17.179L77.512,17.179z
			 M77.512,18.622v0.83l-0.629-0.436v-0.809L77.512,18.622L77.512,18.622z M77.512,19.751v1.48l-0.33,0.713
			c0,0.074-0.062,0.074-0.1,0.041l-0.199-0.141v-0.812h0.041c0,0.023,0.031,0.023,0.031,0L77.512,19.751L77.512,19.751z
			 M77.512,22.083v0.555c-0.035-0.025-0.061-0.025-0.098-0.061L77.512,22.083z M76.883,18.208v0.809l-0.027-0.021
			c0,0,0,0-0.031,0.021l-0.66,1.484c0,0,0,0.039,0.029,0.039l0.689,0.492v0.812l-1.342-0.949v-0.43l1.047-2.357
			c0.041-0.08,0.068-0.08,0.1-0.041L76.883,18.208L76.883,18.208z M75.542,14.313v-0.49l0.127,0.037L75.542,14.313L75.542,14.313z
			 M75.542,13.267v-0.793l0.553,0.236l-0.195,0.723L75.542,13.267z M75.542,12.474v0.793l-4.408-1.902c-0.066,0-0.1,0.023-0.1,0.062
			l-0.789,2.826c-0.131,0.535-0.326,1.025-0.525,1.443v-2.17c0.027-0.023,0.068-0.023,0.127-0.064l0.793-2.887
			c0.037-0.137,0.1-0.174,0.195-0.137l2.307,1.027l0.168-0.635l0.59,0.26l-0.168,0.594L75.542,12.474L75.542,12.474z M75.542,13.823
			l-4.24-1.844l-0.199,0.73l1.84,0.793l-0.168,0.518c0,0.072-0.027,0.133-0.027,0.195l-1.713-0.713c-0.127-0.07-0.227,0-0.26,0.156
			l-1.055,3.818v0.85l0.367,0.137l1.115-4.053c0-0.021,0.027-0.021,0.061-0.021l1.219,0.518c-0.459,1.061-1.053,1.68-1.842,1.939
			l0.33,0.666c0.627-0.271,1.152-0.73,1.578-1.383c0.227,0.818,0.426,1.582,0.562,2.234l0.592-0.297
			c-0.236-0.889-0.492-1.738-0.791-2.59c0-0.035,0.062-0.137,0.131-0.297l1.412,0.592c0.033,0.021,0.068,0.021,0.033,0.062
			l-0.822,3.023c-0.029,0.137-0.102,0.234-0.229,0.258c-0.1,0.041-0.168,0.041-0.268-0.023c-0.158-0.098-0.395-0.295-0.721-0.629
			l-0.23,0.791c0.725,0.592,1.219,0.791,1.484,0.689c0.229-0.066,0.393-0.262,0.453-0.592l1.059-3.775
			c0.031-0.176,0-0.275-0.139-0.336l-1.766-0.752c0-0.078,0.027-0.135,0.027-0.195l0.168-0.572l1.969,0.867l0.068-0.275V13.823
			L75.542,13.823z M75.542,20.466v0.43l-0.098-0.039c-0.035-0.02-0.035-0.1,0-0.158L75.542,20.466L75.542,20.466z M69.719,12.474
			l0.127,0.039c0.199-0.791,0.268-1.521,0.299-2.111l-0.426-0.062V12.474z M69.719,10.339v2.135l-0.426-0.1
			c0.16-0.85,0.258-1.543,0.258-2.066L69.719,10.339L69.719,10.339z M69.719,13.526v2.17c-0.426,0.793-0.951,1.449-1.613,1.939
			l-0.393-0.594c0.594-0.455,1.018-0.912,1.312-1.406c0.17-0.334,0.33-0.729,0.496-1.146c-0.201,0.1-0.496,0.219-0.852,0.357
			l-0.166-0.732C68.504,14.093,68.926,13.896,69.719,13.526L69.719,13.526z M69.719,17.478l-0.197,0.75l0.197,0.1V17.478
			L69.719,17.478z M64.659,16.032v-1.621c0.127-0.195,0.258-0.391,0.395-0.588c-0.137-0.262-0.268-0.492-0.395-0.717v-1.088
			c0,0,0,0,0.029,0.037c0.297-0.494,0.592-1.025,0.891-1.617c0.164,0.137,0.295,0.297,0.457,0.432
			c-0.23,0.457-0.557,1.012-1.021,1.68c0.1,0.195,0.238,0.418,0.395,0.688c0.295-0.564,0.627-1.117,0.92-1.713l0.494,0.432
			c-0.455,0.916-1.145,2.002-2.037,3.322l1.02,0.062c-0.062-0.457-0.102-0.732-0.102-0.852l0.596-0.078
			c0.127,0.99,0.199,1.756,0.199,2.371h-0.594c0-0.225-0.031-0.453-0.031-0.717L64.659,16.032L64.659,16.032z M64.659,9.981
			l2.598,0.553l0.1-0.719l-1.188-0.229c0.23-0.357,0.359-0.654,0.457-0.83l-0.492-0.453c-0.16,0.295-0.359,0.691-0.629,1.121
			l-0.846-0.195V9.981z M64.659,9.229v0.752l-2.178-0.49l0.102-0.693l0.92,0.197L63.44,8.638c-0.068-0.297-0.137-0.496-0.166-0.572
			l0.229-0.1l0,0l0,0h0.039l0.355-0.156l0.139,0.59c0,0.039,0,0.061,0.029,0.061c0.068,0.273,0.1,0.473,0.166,0.672L64.659,9.229
			L64.659,9.229z M64.659,12.019v1.088c-0.168-0.26-0.33-0.492-0.494-0.691c0.125-0.16,0.262-0.334,0.395-0.533
			C64.559,11.921,64.588,11.956,64.659,12.019L64.659,12.019z M64.659,14.411c-0.199,0.277-0.395,0.572-0.594,0.83l-0.199-0.037
			c0-0.023,0-0.062,0-0.121c-0.027-0.494-0.068-0.867-0.068-1.027h-0.594c0,0.135,0.041,0.453,0.07,0.951l-0.918-0.061
			c0.947-1.42,1.68-2.631,2.203-3.66l-0.494-0.391c-0.295,0.59-0.625,1.16-0.92,1.678c-0.168-0.219-0.295-0.492-0.395-0.691
			c0.453-0.654,0.791-1.184,1.02-1.602c-0.168-0.168-0.299-0.299-0.467-0.465c-0.295,0.561-0.588,1.08-0.883,1.549
			c-0.135-0.197-0.195-0.334-0.234-0.373c-0.129,0.176-0.256,0.373-0.428,0.533c0.367,0.432,0.695,1.025,1.02,1.68
			c-0.395,0.594-0.789,1.15-1.184,1.703h-0.227v0.729l1.906,0.102c0,0.197,0,0.393,0,0.553l0.592,0.072c0-0.102,0-0.232,0-0.33
			h0.793V14.411L64.659,14.411z M61.368,13.204V12.12l0.295,0.096C61.563,12.573,61.463,12.909,61.368,13.204L61.368,13.204z
			 M61.368,11.128V10.04c0.129,0.201,0.264,0.398,0.391,0.594L61.368,11.128L61.368,11.128z M61.368,8.501V7.353
			c0.264,0.318,0.592,0.754,0.889,1.285L61.79,9.132C61.631,8.894,61.497,8.659,61.368,8.501z M61.368,7.353v1.148
			c-0.199-0.26-0.328-0.455-0.494-0.631l0.461-0.518C61.334,7.353,61.334,7.353,61.368,7.353L61.368,7.353z M61.368,10.04v1.088
			l-0.066,0.062c-0.332-0.518-0.627-0.883-0.885-1.109l0.457-0.59C61.04,9.647,61.204,9.845,61.368,10.04L61.368,10.04z
			 M61.368,12.12v1.084c-0.328,0.986-0.721,1.742-1.146,2.295l-0.596-0.416c0.691-0.893,1.186-1.916,1.443-3.104L61.368,12.12
			L61.368,12.12z M61.368,14.907l-0.426-0.023c0.027,0.258,0.066,0.518,0.098,0.752h0.328V14.907L61.368,14.907z M57.522,15.577
			v-0.828c0.295,0,0.557,0,0.85-0.041l-0.061,0.828C58.042,15.577,57.786,15.577,57.522,15.577L57.522,15.577z M57.522,12.968
			v-0.199l0.029,0.041c0.039,0.037,0.039,0.062,0,0.131L57.522,12.968L57.522,12.968z M57.522,11.761v-1.258
			c0.324,0.588,0.592,1.059,0.719,1.379l-0.523,0.334C57.647,12.056,57.59,11.921,57.522,11.761L57.522,11.761z M57.522,9.747h0.295
			c0.066,0,0.066,0.068,0.066,0.139c0.031,0.031-0.037,0.295-0.166,0.748l0.523,0.236c0.201-0.562,0.301-1.055,0.328-1.482
			l-0.49-0.332l-0.557-0.023V9.747L57.522,9.747z M57.522,8.438V8.364l0.029,0.035C57.522,8.399,57.522,8.399,57.522,8.438
			L57.522,8.438z M57.522,7.771V7.017c0.125-0.029,0.225-0.029,0.361-0.059l0.059,0.748C57.817,7.747,57.688,7.747,57.522,7.771z
			 M57.522,7.017v0.754c-0.467,0.076-1.057,0.137-1.811,0.174c-0.129,0-0.27,0-0.396,0V7.183
			C56.235,7.153,56.956,7.081,57.522,7.017L57.522,7.017z M57.522,8.364L57.096,7.87c-0.268,0.434-0.533,0.828-0.826,1.162
			l-0.955-0.037v0.727l2.207,0.025V9.032h-0.426c0,0,0.031-0.037,0.031-0.078c0.195-0.221,0.324-0.418,0.395-0.516V8.364
			L57.522,8.364z M57.522,10.503v1.258c-0.23-0.475-0.467-0.891-0.721-1.285l0.49-0.363C57.391,10.241,57.452,10.376,57.522,10.503
			L57.522,10.503z M57.522,12.769v0.199c-0.367,0.535-0.959,1.027-1.811,1.484c0.029,0,0.029,0,0.068,0
			c0.555,0.195,1.148,0.297,1.742,0.297v0.828c-0.793-0.041-1.514-0.199-2.207-0.57V13.86c0.523-0.26,0.893-0.498,1.119-0.693
			c0-0.031,0-0.061-0.066-0.061h-1.053v-0.732l1.84,0.041C57.292,12.55,57.422,12.673,57.522,12.769L57.522,12.769z M55.315,11.86
			v-0.732l0.693,0.039c0.029,0,0.096-0.039,0.164-0.098c0.035,0,0.062-0.199,0.098-0.566l0.531,0.232
			c-0.072,0.531-0.1,0.826-0.141,0.85c-0.158,0.195-0.293,0.297-0.426,0.297L55.315,11.86L55.315,11.86z M55.315,10.896
			c0,0.037,0.031,0.037,0.031,0.074l0.463-0.436c-0.068-0.096-0.227-0.328-0.494-0.648V10.896L55.315,10.896z M55.315,8.856V8.438
			c0.031,0.098,0.1,0.199,0.127,0.318L55.315,8.856z M55.315,7.183v0.762c-0.096,0-0.166,0-0.264,0
			c0.098,0.121,0.168,0.297,0.264,0.494v0.418l-0.166,0.139h0.166v0.727l-0.988-0.035v1.012c0,0.133,0.041,0.234,0.1,0.293
			c0.068,0.078,0.137,0.137,0.195,0.137h0.693v0.732h-0.789c-0.129,0.221-0.227,0.395-0.299,0.494l1.088,0.02v0.732l-1.184-0.037
			V8.954l0.76,0.041c-0.133-0.297-0.27-0.535-0.365-0.691l0.428-0.338c-0.293,0-0.557,0-0.822,0V7.218
			c0.363,0,0.76-0.035,1.154-0.035H55.315L55.315,7.183z M55.315,9.886c-0.029-0.041-0.029-0.07-0.068-0.1l-0.426,0.455
			c0.268,0.334,0.426,0.553,0.494,0.654V9.886L55.315,9.886z M55.315,13.86v1.146c-0.127-0.061-0.227-0.123-0.361-0.199
			c-0.26,0.1-0.527,0.199-0.822,0.295v-0.748c0.066,0,0.096-0.041,0.168-0.041c-0.072-0.061-0.102-0.098-0.168-0.16v-0.986
			c0.137,0.195,0.266,0.336,0.363,0.434c0.166,0.158,0.299,0.318,0.494,0.42C55.088,13.995,55.219,13.919,55.315,13.86z
			 M54.131,7.218v0.748c-0.299,0-0.557,0-0.791,0c0.135,0.199,0.297,0.434,0.434,0.732l-0.299,0.256h0.656v4.115h-0.062
			c0.031,0.037,0.031,0.066,0.062,0.098v0.986c-0.258-0.258-0.525-0.592-0.791-0.949c-0.195,0.127-0.391,0.229-0.586,0.322V12.71
			c0.488-0.258,0.883-0.629,1.178-1.084c-0.127-0.199-0.199-0.359-0.199-0.535l0.041-1.404l-1.02-0.039V8.933l0.459,0.021
			c-0.166-0.295-0.301-0.494-0.428-0.65l0.359-0.338c-0.133-0.021-0.26-0.021-0.391-0.021V7.183
			C53.18,7.218,53.637,7.218,54.131,7.218L54.131,7.218z M54.131,14.354v0.748c-0.426,0.139-0.889,0.199-1.377,0.275v-0.77
			C53.28,14.589,53.706,14.489,54.131,14.354L54.131,14.354z M52.754,11.722c0.258-0.334,0.525-0.73,0.752-1.188l-0.523-0.422
			c-0.07,0.168-0.131,0.289-0.229,0.463V11.722z M52.754,7.183v0.762c-0.137,0-0.295,0-0.434,0l-0.059-0.762
			C52.418,7.183,52.588,7.183,52.754,7.183L52.754,7.183z M52.754,8.933v0.715h-0.361c-0.033,0-0.072,0.039-0.072,0.074v1.053
			l-0.59-0.039l0.037-1.68c0-0.102,0.029-0.123,0.127-0.123H52.754L52.754,8.933z M52.754,10.575
			c-0.197,0.357-0.463,0.691-0.729,0.949c0.096,0.137,0.236,0.336,0.334,0.596c0.129-0.102,0.258-0.26,0.395-0.398V10.575
			L52.754,10.575z M52.754,12.71v0.816c-0.197,0.133-0.395,0.195-0.633,0.297l-0.293-0.717c0.234-0.098,0.463-0.166,0.631-0.234
			C52.557,12.847,52.657,12.769,52.754,12.71L52.754,12.71z M52.754,14.608v0.77c-0.295,0.023-0.633,0.064-0.957,0.064l-0.1-0.754
			C52.063,14.688,52.418,14.647,52.754,14.608L52.754,14.608z M49.293,15.896v-0.691c0.072-0.023,0.102-0.062,0.139-0.121
			c0.033-0.076,0.033-0.236,0.033-0.436c0,0-0.033,0-0.07,0.041h-0.102v-0.574l0.471-0.119c0.127,0,0.195,0.061,0.223,0.195
			c0.033,0.598,0,1.014-0.127,1.252c-0.068,0.094-0.096,0.193-0.17,0.254C49.592,15.772,49.465,15.835,49.293,15.896L49.293,15.896z
			 M49.293,13.958v-1.703c0.041,0.02,0.041,0.061,0.041,0.119l0.23,1.521C49.465,13.919,49.366,13.958,49.293,13.958L49.293,13.958z
			 M49.293,11.585v-0.986l0.102-0.023c0.268,0.691,0.396,1.051,0.43,1.109l-0.43,0.197C49.366,11.78,49.334,11.685,49.293,11.585
			L49.293,11.585z M49.293,10.376V9.425c0.139,0.322,0.271,0.586,0.299,0.781L49.293,10.376z M49.293,9.425v0.951l-0.096,0.025
			c-0.031-0.062-0.059-0.121-0.1-0.195l-0.326,0.102l0.268,1.85l-0.494,0.117l-0.232-1.771l-0.332,0.096V9.786
			c0.039-0.1,0.07-0.166,0.098-0.236c-0.027-0.059-0.059-0.098-0.098-0.125V7.472c0.137,0.076,0.234,0.104,0.332,0.176
			c-0.035,0.26-0.166,0.617-0.293,1.051c0.059,0.1,0.158,0.158,0.293,0.297c0.062-0.336,0.133-0.654,0.195-0.949l0.459,0.096
			c-0.027,0.395-0.195,0.951-0.49,1.645l0.395-0.139c-0.068-0.121-0.1-0.223-0.131-0.26l0.426-0.256
			C49.198,9.229,49.235,9.327,49.293,9.425L49.293,9.425z M49.293,10.599l-0.326,0.195c0.131,0.297,0.23,0.57,0.326,0.791V10.599
			L49.293,10.599z M49.293,12.255c-0.027,0-0.059,0-0.096,0l-1.217,0.258v0.594l0.863-0.197c0.027,0,0.057,0,0.057,0.059
			l0.039,0.236l-0.959,0.197v0.594l1.018-0.236l0.072,0.262c0.068-0.025,0.127-0.025,0.223-0.062V12.255L49.293,12.255z
			 M49.293,14.114v0.574l-1.312,0.295V14.39L49.293,14.114L49.293,14.114z M49.293,15.204v0.691
			c-0.295,0.137-0.721,0.234-1.312,0.334v-0.633C48.645,15.478,49.071,15.341,49.293,15.204L49.293,15.204z M47.981,12.179h0.234
			c0-0.418,0-0.852,0-1.246h-0.234V12.179z M47.981,7.472v1.953c-0.197-0.195-0.396-0.369-0.592-0.492V8.856
			c0.068-0.158,0.139-0.32,0.168-0.492c0.027,0,0.027,0,0.068,0.035c0.1-0.334,0.158-0.652,0.227-0.988
			C47.92,7.452,47.952,7.452,47.981,7.472L47.981,7.472z M47.981,9.786v0.812l-0.297,0.1c-0.027-0.164-0.1-0.359-0.199-0.559
			l0.367-0.129C47.92,9.944,47.952,9.845,47.981,9.786L47.981,9.786z M47.981,10.933v1.246l-0.227-0.021
			c0.029-0.377,0.029-0.793,0-1.262L47.981,10.933L47.981,10.933z M47.981,12.513v0.594l-0.592,0.131v-0.59L47.981,12.513
			L47.981,12.513z M47.981,13.401v0.594l-0.592,0.119v-0.588L47.981,13.401L47.981,13.401z M47.981,14.39v0.594l-0.592,0.119V14.55
			L47.981,14.39L47.981,14.39z M47.981,15.597v0.633c-0.197,0.031-0.396,0.061-0.592,0.1v-0.633c0.168,0,0.336-0.021,0.463-0.061
			C47.879,15.636,47.952,15.597,47.981,15.597L47.981,15.597z M47.389,12.315l0.268-0.041c0.027-0.02,0.027-0.059,0.027-0.096
			l-0.227-1.58c0-0.023,0-0.064-0.068-0.064v0.041V12.315L47.389,12.315z M47.389,10.28v-0.168V10.28L47.389,10.28z M47.389,8.856
			v0.076c-0.031,0-0.031,0-0.031,0C47.358,8.894,47.358,8.894,47.389,8.856L47.389,8.856z M47.389,10.112v0.168l-0.494,0.121V9.917
			l0.434-0.102L47.389,10.112L47.389,10.112z M47.389,10.575v1.74l-0.494,0.137v-0.496l0.336-0.074c0,0,0.027-0.021,0-0.021
			l-0.1-0.77l0,0l-0.236,0.037v-0.455L47.389,10.575L47.389,10.575z M47.389,12.647v0.59l-0.494,0.094v-0.586L47.389,12.647
			L47.389,12.647z M47.389,13.526v0.588l-0.494,0.102v-0.588L47.389,13.526L47.389,13.526z M47.389,14.55v0.553l-0.494,0.139v-0.594
			L47.389,14.55L47.389,14.55z M47.389,15.696v0.633c-0.158,0.033-0.328,0.059-0.494,0.1v-0.656
			C47.061,15.772,47.231,15.737,47.389,15.696L47.389,15.696z M46.895,9.687V9.229l0.363-0.078l0.07,0.436L46.895,9.687
			L46.895,9.687z M46.895,8.995V8.536l0.395-0.098l0.068,0.455L46.895,8.995L46.895,8.995z M46.895,8.304V7.81l0.195-0.039
			l0.07,0.471L46.895,8.304z M46.895,7.81v0.494L46.143,8.46V7.966L46.895,7.81L46.895,7.81z M46.895,8.536v0.459l-0.752,0.156
			V8.698L46.895,8.536L46.895,8.536z M46.895,9.229v0.457l-0.752,0.158V9.388L46.895,9.229L46.895,9.229z M46.895,9.917v0.484
			l-0.752,0.174v-0.494L46.895,9.917L46.895,9.917z M46.895,10.673v0.455l-0.357,0.1l0,0l0.1,0.752c0,0,0,0.039,0.027,0.039
			l0.23-0.062v0.496L46.37,12.55c-0.029,0-0.061,0-0.061-0.076l-0.166-1.188v-0.455L46.895,10.673L46.895,10.673z M46.895,12.745
			v0.586l-0.752,0.172V12.94L46.895,12.745L46.895,12.745z M46.895,13.628v0.588l-0.752,0.174v-0.566L46.895,13.628L46.895,13.628z
			 M46.895,14.647v0.594l-0.752,0.16v-0.594L46.895,14.647L46.895,14.647z M46.895,15.772v0.656c-0.158,0-0.357,0.027-0.525,0.061
			l-0.127-0.654C46.467,15.835,46.7,15.794,46.895,15.772L46.895,15.772z M46.143,12.415l0.027-0.041
			c0-0.059-0.027-0.119-0.027-0.195V12.415z M46.143,7.966V8.46l-0.17,0.041V8.007L46.143,7.966L46.143,7.966z M46.143,8.698v0.453
			l-0.17,0.041V8.733L46.143,8.698L46.143,8.698z M46.143,9.388v0.457l-0.17,0.041V9.425L46.143,9.388L46.143,9.388z M46.143,10.081
			v0.494h-0.1l-0.07-0.369v-0.094L46.143,10.081L46.143,10.081z M46.143,10.831v0.455l-0.068-0.391c0-0.025,0-0.064,0.037-0.064
			H46.143L46.143,10.831z M46.143,12.179v0.236l-0.17,0.059V11.78C46.043,11.921,46.075,12.056,46.143,12.179L46.143,12.179z
			 M46.143,12.94v0.562l-0.17,0.023V12.94H46.143L46.143,12.94z M46.143,13.823v0.566l-0.17,0.021v-0.588H46.143L46.143,13.823z
			 M46.143,14.808v0.594l-0.17,0.041v-0.596L46.143,14.808L46.143,14.808z M45.973,11.03v-0.039c0.041,0,0.041,0.039,0.041,0.039
			H45.973z M45.973,8.007v0.494h-0.027V8.046L45.973,8.007L45.973,8.007z M45.973,8.733v0.459h-0.027V8.733H45.973L45.973,8.733z
			 M45.973,9.425v0.461l-0.027,0.031V9.425H45.973L45.973,9.425z M45.973,10.112v0.094V10.14V10.112L45.973,10.112z M45.973,10.991
			v0.039l-0.027,0.039v-0.295C45.946,10.831,45.973,10.933,45.973,10.991L45.973,10.991z M45.973,11.78v0.693h-0.027v-0.848
			C45.946,11.661,45.973,11.722,45.973,11.78L45.973,11.78z M45.973,12.94v0.586l-0.027,0.035v-0.594L45.973,12.94L45.973,12.94z
			 M45.973,13.823v0.588l-0.027,0.041V13.86L45.973,13.823L45.973,13.823z M45.973,14.847v0.596h-0.027v-0.596H45.973z
			 M45.946,8.046v0.455l-0.227,0.035V8.065L45.946,8.046L45.946,8.046z M45.946,8.733v0.459l-0.227,0.059V8.798L45.946,8.733
			L45.946,8.733z M45.946,9.425v0.492h-0.033l-0.066-0.465L45.946,9.425L45.946,9.425z M45.946,10.774v0.295l-0.227,0.121v-0.984
			C45.776,10.376,45.875,10.575,45.946,10.774L45.946,10.774z M45.946,11.626v0.848l-0.197,0.1c0-0.061,0-0.1-0.029-0.121v-0.928
			l0.156-0.059C45.875,11.485,45.913,11.562,45.946,11.626L45.946,11.626z M45.946,12.968v0.594l-0.227,0.039v-0.592L45.946,12.968
			L45.946,12.968z M45.946,13.86v0.592l-0.227,0.037v-0.594L45.946,13.86L45.946,13.86z M45.946,14.847v0.596l-0.227,0.035v-0.57
			L45.946,14.847z M45.719,8.065v0.471L45.676,8.56l-0.059-0.453L45.719,8.065L45.719,8.065z M45.719,8.798v0.453h-0.07l-0.07-0.453
			H45.719L45.719,8.798z M45.719,10.206c-0.043-0.125-0.102-0.225-0.141-0.32l-0.424,0.254c0.07,0.066,0.096,0.199,0.131,0.299
			l-0.391,0.16c0.293-0.682,0.488-1.248,0.525-1.645l-0.496-0.098c-0.029,0.295-0.094,0.596-0.195,0.93
			c-0.031-0.039-0.068-0.064-0.098-0.064v1.643l0.125-0.037l0.236,1.682l0.488-0.1l-0.256-1.781l0.297-0.098
			c0,0.061,0.027,0.137,0.057,0.236l0.141-0.076V10.206L45.719,10.206z M45.719,11.524v0.928c-0.102-0.371-0.197-0.592-0.27-0.791
			L45.719,11.524L45.719,11.524z M45.719,13.009v0.592l-1.021,0.223l-0.066-0.518v-0.039L45.719,13.009L45.719,13.009z
			 M45.719,13.896v0.594L45.42,14.55c-0.068,0.039-0.098,0.098-0.098,0.238v0.195l0.396-0.076v0.57l-0.469,0.119l-0.025,0.338
			c-0.17-0.039-0.369-0.1-0.527-0.141l0.133-1.541c0-0.139,0.064-0.197,0.162-0.197L45.719,13.896L45.719,13.896z M44.631,12.573
			V11.86l0,0C44.661,12.019,44.631,12.255,44.631,12.573L44.631,12.573z M44.631,8.798V8.364c0.029,0.035,0.066,0.035,0.098,0.035
			C44.698,8.536,44.661,8.659,44.631,8.798z M44.631,8.364v0.434c-0.033,0.234-0.133,0.49-0.197,0.789
			c0.064,0.033,0.127,0.061,0.197,0.135v1.643l-0.229,0.102v-0.867c0.059-0.064,0.096-0.16,0.129-0.26
			c-0.033-0.059-0.07-0.059-0.129-0.098V8.265C44.499,8.304,44.561,8.341,44.631,8.364L44.631,8.364z M44.631,11.86v0.713
			c0,0.137,0,0.273,0,0.436l-0.229-0.041v-1.148L44.631,11.86L44.631,11.86z M44.631,13.267v0.039V13.267L44.631,13.267z
			 M44.403,8.265v1.977c-0.168-0.129-0.336-0.23-0.492-0.297V9.491c0-0.066,0-0.104,0.027-0.164c0,0,0.029,0,0.07,0.023
			c0.096-0.355,0.156-0.713,0.227-1.146C44.305,8.241,44.362,8.265,44.403,8.265L44.403,8.265z M44.403,10.599v0.867l-0.266,0.119
			c-0.07-0.158-0.129-0.357-0.227-0.555l0.354-0.135C44.305,10.794,44.362,10.698,44.403,10.599L44.403,10.599z M44.403,11.819
			v1.148l-0.238-0.027c0.039-0.367,0.039-0.725,0.039-1.121H44.403L44.403,11.819z M43.911,16.782v-3.578l0.354-0.068
			c0.098,1.453,0.041,2.658-0.256,3.646H43.911L43.911,16.782z M43.911,11.979v-0.295c0.027,0.037,0.057,0.076,0.098,0.096
			L43.911,11.979z M43.911,9.491v0.453c-0.043,0-0.072-0.027-0.102-0.027C43.838,9.747,43.868,9.62,43.911,9.491L43.911,9.491z
			 M43.911,11.685v0.295l-0.238,0.436c-0.391-0.396-0.723-0.654-0.98-0.83l0.297-0.615C43.247,11.128,43.543,11.388,43.911,11.685
			L43.911,11.685z M43.911,13.204v3.578l-0.496-0.059c0.297-1.127,0.395-2.312,0.297-3.486L43.911,13.204L43.911,13.204z
			 M38.213,18.958V18.13l2.602-1.148c0.031,0,0.031-0.033,0.031-0.033l-0.623-2.34c-0.033,0-0.033,0-0.066,0l-1.943,0.834v-0.834
			l2.236-0.949c0.098-0.059,0.197-0.031,0.238,0.139l0.945,3.443c0.039,0.137,0,0.236-0.125,0.295L38.213,18.958L38.213,18.958z
			 M38.213,13.401V12.55l0.961-0.494c-0.432-0.275-0.766-0.43-0.961-0.57V10.87l0.1-0.197c1.115,0.594,2.008,1.188,2.77,1.742
			l-0.365,0.691c-0.268-0.197-0.527-0.396-0.822-0.594L38.213,13.401L38.213,13.401z M42.456,9.491
			c0.268,0.129,0.592,0.354,1.021,0.715l0.293-0.619c-0.391-0.336-0.723-0.592-1.018-0.73L42.456,9.491z M38.213,10.87v0.615
			c-0.1-0.02-0.158-0.098-0.195-0.098L38.213,10.87L38.213,10.87z M38.213,12.55l-2.531,1.311c0.268-1.014,0.467-1.842,0.564-2.496
			l-0.592-0.236c-0.199,1.127-0.465,2.178-0.762,3.125l-0.621,0.336c0.127,0.258,0.268,0.494,0.365,0.689l3.576-1.877V12.55
			L38.213,12.55z M38.213,14.608v0.834l-2.033,0.887c-0.031,0-0.031,0.033,0,0.033l0.619,2.336c0,0,0,0.023,0.037,0.023l1.377-0.592
			v0.828l-1.639,0.725c-0.131,0.027-0.199,0-0.229-0.172l-0.959-3.445c-0.027-0.131,0-0.23,0.098-0.271L38.213,14.608L38.213,14.608
			z M22.399,31.415v-3.383c0.426,1.246,0.66,2.371,0.66,3.361l-0.66,0.195C22.399,31.515,22.399,31.491,22.399,31.415L22.399,31.415
			z M22.399,26.647l0.789-0.91c0.297,1.174,0.521,2.334,0.693,3.484l-0.562,0.688c0.236,0.158,0.432,0.322,0.59,0.459l3.025-4.045
			c0.17,0.094,0.332,0.195,0.527,0.289l0.236-0.752c-0.988-0.596-1.846-0.988-2.602-1.188l-0.197,0.768
			c0.396,0.098,0.855,0.297,1.385,0.555l-1.848,2.473c-0.227-1.361-0.457-2.473-0.686-3.322l1.771-2.016l-0.426-0.592l-1.611,1.816
			l-0.92-1.258l1.443-1.607l-0.426-0.557l-1.184,1.348v1.738l0.621,0.893l-0.621,0.689V26.647L22.399,26.647z M29.831,18.603
			c0.854,1.08,1.977,1.863,3.254,2.354c0.367,0.141,0.762,0.275,1.215,0.395l0.295-0.789c-1.768-0.395-3.15-1.146-4.105-2.234
			c-0.49-0.516-0.953-1.246-1.379-2.16l0,0c-0.068-0.102-0.098-0.199-0.133-0.332l-0.195-0.434l-0.592,0.393l0.197,0.467
			c1.348,3.154,1.416,5.957,0.199,8.391l0.652,0.197c0.523-1.184,0.791-2.41,0.818-3.557C30.096,20.401,29.999,19.511,29.831,18.603
			z M22.399,22.28v1.738L22.1,23.665l-1.145,1.281V23.86l0.721-0.789l-0.621-0.891l0.451-0.533l0.666,0.863L22.399,22.28
			L22.399,22.28z M22.399,25.601v1.047l-0.455,0.498l-0.396-0.594L22.399,25.601L22.399,25.601z M22.399,28.032v3.383
			c-0.031-1.148-0.26-2.234-0.693-3.283l0.594-0.357C22.336,27.874,22.368,27.974,22.399,28.032L22.399,28.032z M20.956,34.44
			v-1.867l0.551,0.463c0.1,0.061,0.1,0.123,0.07,0.219L20.956,34.44L20.956,34.44z M20.956,27.54v-0.824c0.1,0,0.158,0,0.227-0.029
			l0.131,0.793C21.182,27.499,21.086,27.499,20.956,27.54z M20.956,23.86v1.086l-0.199,0.221l-0.168-0.221v-0.668L20.956,23.86
			L20.956,23.86z M20.956,26.716v0.824c-0.1,0.039-0.232,0.059-0.367,0.059V26.81C20.723,26.788,20.856,26.751,20.956,26.716
			L20.956,26.716z M20.956,32.573v1.867l-0.367,0.693v-1.188l0.268-0.494c0.031-0.062,0.031-0.096,0-0.121l-0.268-0.197v-0.857
			L20.956,32.573z M20.588,24.278v0.668l-0.258-0.373L20.588,24.278L20.588,24.278z M20.588,26.81v0.789
			c-0.258,0.076-0.496,0.176-0.691,0.236l-0.129-0.752C19.997,26.946,20.292,26.886,20.588,26.81L20.588,26.81z M20.588,32.276
			v0.857l-2.855-2.332v-0.869L20.588,32.276L20.588,32.276z M20.588,33.946l-0.496,0.963c0.043-0.193,0.043-0.369,0-0.529
			c-0.025-0.139-0.125-0.236-0.256-0.355l-0.463-0.395l0.463-0.895l-0.395-0.293l-0.463,0.889l-0.299-0.273l0.137-0.322
			c0.1,0,0.23,0,0.33-0.035l-0.033-0.619c-0.365,0-0.66,0.027-0.928,0.062l0.041-0.062c0.027-0.074,0.027-0.094,0-0.133
			l-0.494-0.434v1.582l0.258-0.557l0.037,0.322c0.031-0.025,0.1-0.025,0.158-0.025l-0.453,0.949v1.248l0.652-1.387l0.295,0.24
			l-0.947,1.877v1.045l0.158-0.328l0.1,0.588c0.195-0.1,0.49-0.158,0.887-0.219l-0.061-0.668c-0.363,0.074-0.658,0.135-0.889,0.234
			l1.148-2.197l0.33,0.297c0.062,0.023,0.062,0.098,0.098,0.199c0,0.061-0.195,0.254-0.557,0.613l0.494,0.395
			c0.227-0.195,0.395-0.354,0.494-0.494l-1.877,3.656c-0.031,0.031-0.068,0.031-0.1,0l-0.227-0.195v0.852l0.295,0.26
			c0.059,0.072,0.131,0.035,0.199-0.062l2.361-4.605V33.946L20.588,33.946z M18.653,25.933c0.395-0.102,0.916-0.195,1.611-0.234
			l-0.07-0.826c-0.652,0.074-1.215,0.135-1.641,0.295L18.653,25.933z M17.733,29.933v0.869l-0.268-0.236v-0.852L17.733,29.933
			L17.733,29.933z M17.733,31.515v1.582l-0.268,0.492v-0.922l0.195-0.391c0,0,0-0.033-0.027-0.033l-0.168-0.162v-0.766
			L17.733,31.515L17.733,31.515z M17.733,33.786v1.248l-0.268,0.529v-1.42l0.035,0.039L17.733,33.786L17.733,33.786z M17.733,35.765
			v1.045l-0.268,0.535v-1.059L17.733,35.765L17.733,35.765z M17.733,38.69v0.852l-0.268-0.199v-0.852L17.733,38.69z M17.465,29.714
			v0.852l-0.295-0.238v-0.848L17.465,29.714L17.465,29.714z M17.465,31.315v0.766l-0.062-0.033L17.17,32.54v-1.443L17.465,31.315
			L17.465,31.315z M17.465,32.667v0.922l-0.227,0.395l0.227,0.16v1.42l-0.295,0.596v-1.225l0.068-0.199l-0.068-0.061v-1.439
			L17.465,32.667L17.465,32.667z M17.465,36.286v1.059l-0.295,0.494l0,0v-0.988L17.465,36.286L17.465,36.286z M17.465,38.491v0.852
			l-0.295-0.23v-0.855L17.465,38.491L17.465,38.491z M17.17,42.071V41.22l0.168,0.098L17.17,42.071z M17.17,29.479v0.848
			l-0.299-0.219v-0.855L17.17,29.479L17.17,29.479z M17.17,31.097v1.443l-0.299,0.557v-0.918l0.199-0.391l-0.199-0.174V30.86
			L17.17,31.097L17.17,31.097z M17.17,33.235v1.439l-0.199-0.158l-0.1,0.199v-1.068l0.041,0.041L17.17,33.235L17.17,33.235z
			 M17.17,34.935v1.225l-0.299,0.592v-1.223L17.17,34.935L17.17,34.935z M17.17,36.851v0.988l-0.299-0.236v-0.197L17.17,36.851
			L17.17,36.851z M17.17,38.257v0.855l-0.299-0.266v-0.85L17.17,38.257L17.17,38.257z M17.17,41.22v0.852l-0.299,1.146v-2.096
			L17.17,41.22z M16.872,29.253v0.855l-0.227-0.176v-0.875L16.872,29.253L16.872,29.253z M16.872,30.86v0.754l0,0
			c-0.029,0-0.029,0-0.029,0l-0.197,0.373v-0.932l0.102-0.195c0.025-0.039,0.066-0.059,0.096-0.039L16.872,30.86L16.872,30.86z
			 M16.872,32.179v0.918l-0.199,0.393l0.199,0.158v1.068l-0.227,0.418v-2.533L16.872,32.179L16.872,32.179z M16.872,35.528v1.223
			l-0.199,0.395l-0.027-0.039v-1.145L16.872,35.528L16.872,35.528z M16.872,37.405v0.197l-0.059-0.062L16.872,37.405L16.872,37.405z
			 M16.872,37.997v0.85l-0.227-0.156v-0.852L16.872,37.997L16.872,37.997z M16.872,41.122v2.096l-0.227,0.891v-2.689l0.102-0.334
			L16.872,41.122z M16.645,29.058v0.875l-0.363-0.318c-0.031,0-0.062,0-0.098,0.029l-0.064,0.129v-1.086c0.029,0,0.064,0,0.1,0.039
			L16.645,29.058L16.645,29.058z M16.645,31.056v0.932l-0.525,1.008v-0.914L16.645,31.056L16.645,31.056z M16.645,32.601
			l-0.326,0.635l-0.199-0.178v1.459l0.26-0.473l0.266,0.197l-0.525,0.965v0.914l0.525-0.986V32.601L16.645,32.601z M16.645,35.962
			v1.145l-0.426-0.256L16.645,35.962L16.645,35.962z M16.645,37.839v0.852l-0.525-0.434v-0.852L16.645,37.839L16.645,37.839z
			 M16.645,41.419v2.689l-0.426,1.879l-0.1-0.039v-3.021l0.162,0.033L16.645,41.419L16.645,41.419z M16.12,31.452l0.525-0.986
			l-0.395-0.297l-0.131,0.234V31.452z M15.852,48.097l0.07,0.023l0.164-0.752l-0.234-0.1V48.097L15.852,48.097z M16.12,28.687v1.086
			l-0.268,0.555v-1.176l0.199-0.365C16.051,28.726,16.086,28.687,16.12,28.687L16.12,28.687z M16.12,30.403v1.049l-0.268,0.555
			V30.96L16.12,30.403L16.12,30.403z M16.12,32.081v0.914v0.041v0.021v1.459l-0.268,0.592v-0.926l0.199-0.434l-0.199-0.16v-0.947
			L16.12,32.081L16.12,32.081z M16.12,35.206v0.914l-0.131,0.297c-0.037,0.064-0.066,0.064-0.098,0.041l-0.039-0.041v-0.752l0,0
			c0,0.033,0.039,0.033,0.039,0L16.12,35.206L16.12,35.206z M16.12,37.405v0.852l-0.268-0.219v-0.869L16.12,37.405L16.12,37.405z
			 M16.12,42.927v3.021l-0.268-0.094v-1.115l0.234-0.988l-0.234-0.061V42.8L16.12,42.927z M15.557,47.999l0.295,0.098v-0.828
			l-0.295-0.096V47.999L15.557,47.999z M15.852,29.151v1.176l-0.295,0.57v-1.184L15.852,29.151L15.852,29.151z M15.852,30.96v1.047
			l-0.295,0.533v-1.049L15.852,30.96L15.852,30.96z M15.852,32.642v0.947h-0.027l-0.268,0.492v-1.48l0.199,0.168L15.852,32.642
			L15.852,32.642z M15.852,34.183v0.926l-0.225,0.395l0.225,0.162v0.752l-0.295-0.234v-1.467L15.852,34.183L15.852,34.183z
			 M15.852,37.169v0.869l-0.295-0.24V36.95L15.852,37.169L15.852,37.169z M15.852,42.8v0.891l-0.295-0.139v-0.848L15.852,42.8
			L15.852,42.8z M15.852,44.739v1.115l-0.256-0.102L15.852,44.739z M13.223,46.024c0.465-0.271,0.857-0.467,1.215-0.631
			l-0.258-0.717c-0.336,0.162-0.631,0.359-0.957,0.557V46.024L13.223,46.024z M13.223,48.813l0.596-0.26
			c-0.17-0.531-0.367-0.986-0.525-1.42l2.264,0.865v-0.826l-2.334-0.893V48.813L13.223,48.813z M15.557,29.714v1.184l-0.623,1.184
			l0.229,0.195l0.395-0.785v1.049l-0.031,0.061h0.031v1.48l-0.494,0.93c0,0.023,0,0.023,0.039,0.023l0.197,0.172l0.258-0.49v1.467
			l-1.049-0.854c-0.035-0.025-0.035-0.061,0-0.1l0.988-1.898l-0.238-0.197l-1.145,2.195l-0.396-0.295l1.148-2.197l-0.227-0.195
			l-1.246,2.43c-0.041,0.062-0.041,0.1,0,0.135l2.164,1.744v0.848l-2.334-1.875v-1.74L15.557,29.714L15.557,29.714z M15.557,42.704
			v0.848l-2.334-0.887v-0.852L15.557,42.704z M12.961,46.183c0.098-0.061,0.195-0.098,0.262-0.158v-0.791
			c-0.197,0.16-0.424,0.295-0.623,0.453c-0.365-0.65-0.82-1.242-1.381-1.738l-0.359,0.297l-0.236,0.988l-1.08-0.395l-0.195,0.75
			l1.078,0.398l-0.324,1.322l0.619,0.219l0.568-2.361c0.027-0.094,0.059-0.131,0.127-0.072c0.721,0.793,1.314,2.039,1.777,3.756
			l0.029-0.037V46.28L12.961,46.183L12.961,46.183z M13.223,34.183v1.74l-0.492-0.42c-0.1-0.074-0.1-0.133-0.062-0.234
			L13.223,34.183L13.223,34.183z M13.223,41.813v0.852l-0.918-0.326l-0.326,1.453l-0.631-0.24l0.363-1.441l-1.342-0.533l0.195-0.791
			l1.346,0.494l0.395-1.643l0.623,0.236l-0.424,1.641L13.223,41.813z"/>
		<path fill="#FFFFFF" d="M97.409,73.979v-1.582l0.949,0.199c0,0.16-0.033,0.395-0.158,0.691
			C98.065,73.606,97.77,73.878,97.409,73.979L97.409,73.979L97.409,73.979z M97.409,71.339V70.36l1.736,0.32l-0.354,0.928
			L97.409,71.339L97.409,71.339z M97.409,69.274v-0.99c0.889,0.064,1.641-0.164,1.809-0.693c0.127-0.529-0.525-1.023-1.582-1.141
			c-0.1,0-0.16-0.041-0.227-0.041v-0.988c0.127,0,0.295,0.041,0.461,0.041c1.939,0.254,2.562,1.34,2.301,2.293
			C99.911,68.706,98.85,69.335,97.409,69.274L97.409,69.274z M97.409,64.433v-0.988c0.098,0.037,0.227,0.078,0.396,0.078
			l3.152,0.217l-0.131,0.959L97.409,64.433L97.409,64.433z M97.409,62.065v-1.014c0.197,0,0.461,0,0.721,0.033l3.191,0.221
			l-0.131,0.955l-3.061-0.223C97.87,61.999,97.606,61.999,97.409,62.065z M97.409,61.052v1.014c-0.426,0.07-0.693,0.229-0.754,0.562
			c-0.037,0.4,0.293,0.695,0.684,0.816c0.039,0,0.039,0,0.07,0v0.988h-0.395c-0.623-0.061-1.148-0.1-1.611-0.1l0.127-0.811h0.83
			v-0.041c-0.395-0.199-0.861-0.631-0.758-1.246C95.698,61.675,96.192,61.147,97.409,61.052L97.409,61.052z M97.409,65.421v0.988
			c-0.791-0.061-1.645,0.098-1.807,0.691c-0.199,0.654,0.658,1.047,1.541,1.148c0.066,0.035,0.166,0.035,0.266,0.035v0.99
			c-0.168,0-0.328,0-0.525-0.039c-1.748-0.234-2.6-1.188-2.275-2.295C94.877,65.952,95.993,65.36,97.409,65.421L97.409,65.421z
			 M97.409,70.36v0.979l-2.896-0.521v-0.988L97.409,70.36L97.409,70.36z M97.409,72.397v1.582c-0.395,0.119-0.891,0.119-1.584-0.039
			l-1.312-0.26v-0.986l1.582,0.32c0.621,0.137,1.018,0.096,1.146-0.258c0.098-0.16,0.098-0.26,0.098-0.359H97.409L97.409,72.397z
			 M94.512,79.989v-0.396l0.197,0.062L94.512,79.989L94.512,79.989z M94.512,78.411v-0.953c0.395,0.037,0.664-0.139,0.791-0.357
			c0.168-0.369-0.031-0.729-0.363-0.887c-0.098-0.039-0.195-0.076-0.293-0.102l-0.135-0.035v-0.99l1.158,0.297
			c0.451,0.1,0.92,0.197,1.242,0.236l-0.395,0.812l-0.594-0.098v0.037c0.268,0.334,0.367,0.752,0.17,1.217
			C95.797,78.149,95.176,78.411,94.512,78.411z M94.512,69.829v0.988l-0.982-0.199l0.359-0.93L94.512,69.829L94.512,69.829z
			 M94.512,72.694v0.986l-1.117-0.234l-0.227,0.494l-0.99-0.197l0.229-0.533l-0.951-0.195l0.031-0.951l1.312,0.258l0.396-0.852
			l0.988,0.197l-0.395,0.852L94.512,72.694L94.512,72.694z M94.512,75.087v0.99l-0.555-0.139c-0.33,0.629-0.428,1.287,0.326,1.482
			c0.1,0,0.166,0.037,0.229,0.037v0.953c-0.162,0-0.357-0.041-0.523-0.062c-1.318-0.295-1.545-1.248-0.893-2.568L93,75.743
			c-0.33-0.062-0.92-0.123-1.248,0.492c-0.17,0.373-0.195,0.768-0.098,1.064H91.26v-1.916c0.621-0.652,1.609-0.691,2.529-0.453
			L94.512,75.087L94.512,75.087z M94.512,79.593v0.396l-0.357,0.557l-2.895-0.891v-1.049L94.512,79.593L94.512,79.593z
			 M91.26,83.509v-0.986c0.322-0.1,0.594-0.301,0.791-0.555c0.195-0.299,0.256-0.533,0.297-0.732l0.984,0.166
			c0,0.232-0.137,0.625-0.432,1.061C92.543,83.015,91.95,83.372,91.26,83.509L91.26,83.509z M91.522,69.771
			c-0.135,0.293,0.098,0.553,0.529,0.652c0.393,0.061,0.787-0.062,0.891-0.395c0.127-0.299-0.104-0.555-0.498-0.656
			C92.01,69.298,91.655,69.435,91.522,69.771z M91.26,75.384V77.3h-0.525c-0.1-0.334-0.1-0.867,0.158-1.42
			C90.993,75.681,91.131,75.521,91.26,75.384L91.26,75.384z M91.26,78.606v1.049l-2.076-0.654l0.564-0.852L91.26,78.606
			L91.26,78.606z M91.26,82.522v0.986c-0.625,0.158-1.346,0.1-2.076-0.137c-0.129-0.059-0.256-0.098-0.395-0.158v-1.42
			c0.166,0.293,0.492,0.529,0.959,0.668C90.307,82.657,90.834,82.657,91.26,82.522L91.26,82.522z M88.79,87.159v-0.98
			c0.197-0.277,0.197-0.531,0-0.791V83.94c1.551,0.756,1.518,1.865,0.789,2.654C89.354,86.829,89.083,87.028,88.79,87.159
			L88.79,87.159z M88.79,81.04v-1.146l0.729,0.43c-0.164,0.098-0.436,0.262-0.631,0.586C88.856,80.938,88.829,80.979,88.79,81.04
			L88.79,81.04z M88.79,78.276v-0.322C88.856,78.054,88.856,78.149,88.79,78.276z M88.79,77.954v0.322
			c0,0.035-0.029,0.072-0.029,0.072c-0.201,0.297-0.596,0.396-0.992,0.297c-0.391-0.139-0.553-0.434-0.354-0.732
			c0.197-0.295,0.588-0.354,0.982-0.254C88.594,77.716,88.729,77.819,88.79,77.954L88.79,77.954z M88.79,79.894v1.146
			c-0.131,0.26-0.131,0.533,0,0.754v1.42c-1.178-0.533-1.643-1.545-0.883-2.594c0.229-0.332,0.523-0.631,0.822-0.766L88.79,79.894
			L88.79,79.894z M88.79,83.94v1.447c-0.16-0.234-0.455-0.471-0.883-0.666c-0.691-0.32-1.711-0.459-2.242,0.07
			c-0.098,0.1-0.131,0.199-0.158,0.299v-1.184c0.889-0.498,2.066-0.498,3.152,0C88.69,83.907,88.76,83.94,88.79,83.94L88.79,83.94z
			 M88.79,86.179v0.98c-0.85,0.426-1.969,0.461-3.057-0.029c-0.098-0.039-0.166-0.064-0.227-0.102v-1.58
			c0.1,0.334,0.494,0.629,0.988,0.852c0.848,0.395,1.805,0.395,2.266-0.1L88.79,86.179L88.79,86.179z M85.506,90.546v-1.123
			c0.027-0.1,0.027-0.158,0-0.219v-1.162c0.158,0.037,0.354,0.098,0.525,0.195c0.789,0.393,0.889,1.162,0,1.953
			C85.86,90.312,85.665,90.45,85.506,90.546z M85.506,83.907v1.184c-0.037,0.119-0.037,0.219,0,0.357v1.58
			c-1.287-0.691-1.514-1.719-0.664-2.627C85.04,84.202,85.239,84.034,85.506,83.907L85.506,83.907z M85.506,88.042
			c-0.494-0.102-1.02,0-1.682,0.271c-0.621,0.258-0.916,0.316-1.186,0.197c-0.258-0.139-0.295-0.395,0.041-0.664
			c0.295-0.262,0.691-0.422,0.949-0.492l-0.623-0.564c-0.17,0.08-0.426,0.174-0.662,0.301v2.332c0.463,0.137,1.057,0.035,1.779-0.26
			c0.592-0.258,0.889-0.334,1.184-0.158c0.1,0.061,0.162,0.1,0.199,0.199V88.042L85.506,88.042z M85.506,89.423v1.123
			c-0.268,0.16-0.562,0.299-0.824,0.357l-0.59-0.553c0.326-0.1,0.852-0.334,1.146-0.633C85.372,89.622,85.469,89.522,85.506,89.423
			L85.506,89.423z M82.344,92.979v-2.334c0.168,0.061,0.336,0.131,0.492,0.225c0.73,0.469,0.73,1.221-0.225,1.949
			C82.512,92.88,82.442,92.919,82.344,92.979z M82.344,87.091v2.332c-0.133-0.023-0.26-0.061-0.393-0.123
			c-0.756-0.43-0.854-1.16-0.064-1.844C82.018,87.325,82.186,87.188,82.344,87.091L82.344,87.091z M82.344,90.646v2.334
			c-0.393,0.234-0.822,0.398-1.18,0.494l-0.527-0.633c0.361-0.061,0.885-0.256,1.25-0.516c0.396-0.297,0.396-0.568,0.131-0.732
			c-0.262-0.154-0.557-0.131-1.186,0.105c-0.557,0.195-1.02,0.258-1.416,0.234v-0.99c0,0,0,0,0.041,0
			c0.227,0.16,0.521,0.123,1.18-0.098C81.323,90.581,81.887,90.509,82.344,90.646L82.344,90.646z M79.417,94.661v-1.129l1.256,0.535
			l-1.115,0.652L79.417,94.661L79.417,94.661z M79.417,90.409v-0.908c0.236-0.102,0.436-0.201,0.592-0.236l0.564,0.592
			c-0.268,0.059-0.689,0.199-1.016,0.428C79.485,90.351,79.458,90.386,79.417,90.409z M79.417,89.501v0.908
			c-0.197,0.201-0.197,0.396,0,0.533v0.99c-0.295,0-0.553-0.1-0.752-0.234c-0.721-0.459-0.721-1.219,0.127-1.842
			C78.991,89.698,79.219,89.599,79.417,89.501L79.417,89.501z M79.417,93.532l-4.043-1.775v1.062l1.451,0.617l-1.451,0.855v2.34
			l0.23,0.395l1.084-0.627l-0.85-1.443l1.811-1.055l1.768,0.76V93.532z M75.374,91.757v1.062l-0.199-0.098
			c-0.424-0.176-0.85-0.396-1.215-0.572l0,0c0.195,0.297,0.428,0.631,0.623,0.928l0.762,1.248l0.029-0.033v2.34l-2.758-4.676
			l1.344-0.789L75.374,91.757L75.374,91.757z M68.01,99.956v-0.529l0.326,0.355C68.237,99.854,68.139,99.882,68.01,99.956
			L68.01,99.956z M68.01,97.222c0.326,0.289,0.988,0.463,1.973,0.324c0.725-0.098,0.986-0.059,1.182,0.16
			c0.168,0.199,0.064,0.436-0.457,0.67c-0.426,0.16-1.02,0.26-1.387,0.221l0.268,0.691c0.457,0,1.051-0.1,1.613-0.318
			c1.246-0.494,1.545-1.225,1.049-1.777c-0.398-0.496-1.049-0.633-2.068-0.535c-0.729,0.102-1.057,0.102-1.217-0.098
			c-0.166-0.221-0.039-0.455,0.391-0.613c0.391-0.18,0.857-0.197,1.152-0.197l-0.264-0.695c-0.357,0-0.889,0.1-1.418,0.299
			c-0.354,0.16-0.621,0.314-0.816,0.514V97.222z M68.01,95.866v1.355c-0.031-0.029-0.068-0.102-0.1-0.129
			C67.586,96.729,67.612,96.265,68.01,95.866L68.01,95.866z M68.01,99.427v0.529c-0.361,0.16-0.822,0.359-1.385,0.484
			c-0.492,0.102-0.947,0.17-1.416,0.133v-0.852c0.396,0.1,0.826,0.1,1.258,0c0.623-0.162,1.018-0.336,1.344-0.533L68.01,99.427
			L68.01,99.427z M65.209,98.97l2.672-0.635c-0.037-0.096-0.07-0.234-0.135-0.393c-0.359-0.689-1.182-1.408-2.537-1.285v0.658
			c0.664-0.027,1.062,0.391,1.189,0.666l-1.189,0.295V98.97z M65.209,96.657v0.658c-0.096,0-0.195,0.035-0.326,0.072
			c-0.791,0.158-0.887,0.754-0.75,1.148l1.076-0.26v0.693l-0.783,0.195c0.162,0.299,0.457,0.494,0.783,0.557v0.852
			c-0.979-0.1-1.738-0.557-2.133-1.307c-0.459-0.99-0.068-2.146,1.582-2.537C64.854,96.696,65.053,96.657,65.209,96.657
			L65.209,96.657z M46.665,100.737v-2.102l0.396-1.414l1.35,0.195l-0.559,2.01c-0.168,0.623,0,1.047,0.721,1.146
			c0.525,0.062,0.959-0.133,1.154-0.357c0.064-0.064,0.133-0.166,0.164-0.26l0.621-2.25l1.355,0.176l-0.723,2.592
			c-0.141,0.434-0.197,0.83-0.266,1.125l-1.189-0.176l0.102-0.553h-0.027c-0.299,0.234-0.92,0.533-1.885,0.393
			C47.389,101.204,46.965,101.028,46.665,100.737L46.665,100.737z M46.665,96.241v-0.492l0.301,0.098L46.665,96.241L46.665,96.241z
			 M54.465,101.757l1.344-0.037l-0.098-1.938c0-0.123,0.029-0.223,0.029-0.297c0.098-0.418,0.529-0.752,1.188-0.752
			c0.199,0,0.295,0,0.426,0l-0.062-0.889c-0.096,0-0.164,0-0.336,0c-0.553,0-1.176,0.297-1.41,0.83h-0.062l-0.068-0.732
			l-1.217,0.039c0.07,0.354,0.102,0.713,0.129,1.207L54.465,101.757L54.465,101.757z M58.805,101.46
			c0.426,0.102,1.049,0.139,1.711,0.039c1.414-0.172,2.035-0.789,1.84-1.449c-0.17-0.564-0.725-0.822-1.744-0.961
			c-0.729-0.059-1.021-0.119-1.084-0.355c-0.072-0.238,0.16-0.434,0.621-0.494c0.498-0.059,0.957,0,1.219,0.061l0.068-0.713
			c-0.33-0.076-0.893-0.1-1.484-0.041c-1.242,0.199-1.873,0.789-1.678,1.445c0.098,0.436,0.662,0.791,1.777,0.891
			c0.691,0.074,0.957,0.168,1.018,0.434c0.068,0.227-0.158,0.422-0.752,0.516c-0.463,0.076-1.086,0-1.455-0.094L58.805,101.46z
			 M46.665,95.749v0.492l-3.09,4.273l-1.277-0.465l-0.234-2.662c-0.061-0.658-0.098-1.381-0.033-2.035h-0.027
			c-0.398,0.613-0.861,1.244-1.414,1.998l-1.219,1.641l-0.592-0.197v-0.889l2.895-3.938l1.375,0.492l0.268,2.594
			c0.064,0.691,0.064,1.346,0,1.977h0.033c0.363-0.654,0.789-1.248,1.312-1.977l1.186-1.605L46.665,95.749L46.665,95.749z
			 M46.665,98.636l-0.197,0.791c-0.197,0.59-0.061,1.014,0.197,1.311V98.636L46.665,98.636z M38.778,93.474v-0.828
			c0.229,0.195,0.396,0.393,0.523,0.568L38.778,93.474z M38.778,92.646v0.828l-0.428,0.199c-0.096-0.199-0.391-0.535-0.955-0.832
			c-0.723-0.355-1.287-0.256-1.541-0.021c-0.369,0.318-0.172,0.654,0.393,1.277c0.754,0.822,0.854,1.451,0.197,2.064
			c-0.689,0.67-2.045,0.865-3.559,0.104v-1.111c0.168,0.16,0.396,0.318,0.666,0.455c0.721,0.398,1.342,0.357,1.734,0.039
			c0.332-0.334,0.234-0.668-0.324-1.262c-0.721-0.781-0.957-1.467-0.295-2.061c0.721-0.691,2.104-0.787,3.42-0.098
			C38.35,92.388,38.581,92.524,38.778,92.646L38.778,92.646z M38.778,97.905v0.889l-0.523-0.197L38.778,97.905L38.778,97.905z
			 M32.885,93.019c0.068-0.039,0.137-0.1,0.238-0.139c0.918-0.629,1.244-1.287,1.148-1.938c-0.031-0.592-0.494-1.186-1.387-1.877
			v1.385c0.137,0.295,0.137,0.594,0,0.85V93.019z M32.885,89.065v1.385c-0.131-0.299-0.393-0.594-0.783-0.891
			c-0.295-0.197-0.561-0.336-0.727-0.432l-2.562,1.742v-1.348l2.334-1.547c0.494,0.262,1.053,0.596,1.639,1.029
			C32.827,89.028,32.858,89.028,32.885,89.065L32.885,89.065z M32.885,91.3v1.719c-0.92,0.514-1.867,0.752-2.758,0.713
			c-0.424-0.025-0.857-0.127-1.314-0.258v-0.889c1.049,0.434,2.164,0.295,3.252-0.436C32.459,91.894,32.754,91.593,32.885,91.3
			L32.885,91.3z M32.885,95.153v1.111c-0.027-0.023-0.059-0.023-0.1-0.023c-0.621-0.334-1.145-0.83-1.314-1.127l0.924-0.531
			C32.493,94.78,32.659,94.979,32.885,95.153L32.885,95.153z M28.813,87.585v-1.209l0.457-0.236l0.857,0.75L28.813,87.585z
			 M28.813,86.376v1.209l-2.273,1.244V87.62L28.813,86.376L28.813,86.376z M28.813,89.522v1.348l-1.285,0.863
			c0.102,0.121,0.297,0.258,0.496,0.393c0.268,0.199,0.52,0.32,0.789,0.459v0.889c-0.59-0.236-1.184-0.529-1.779-0.949
			c-0.197-0.137-0.355-0.273-0.494-0.375v-1.084L28.813,89.522L28.813,89.522z M26.54,84.755v-1.383l0.691,0.857L26.54,84.755z
			 M26.54,83.372v1.383l-2.363,1.816v-1.32l0.623-0.496c0.326-0.229,0.723-0.492,1.018-0.721l0,0
			c-0.426,0.102-0.947,0.195-1.381,0.268l-0.26,0.059v-0.852l2.203-0.336L26.54,83.372L26.54,83.372z M26.54,87.62v1.209
			l-2.363,1.26v-1.184L26.54,87.62L26.54,87.62z M26.54,91.065v1.084c-0.324-0.217-0.555-0.451-0.723-0.611L26.54,91.065z
			 M15.258,62.136l1.088-0.07l-0.494-3.906l-0.594,0.025V62.136L15.258,62.136z M24.176,83.509v0.852l-1.645,0.236l0.953,1.186
			l0.691-0.531v1.32l-2.232,1.742l-0.73-0.889l1.514-1.15l-1.221-1.459l-2.164,0.375l-0.689-0.859L24.176,83.509L24.176,83.509z
			 M24.176,88.905v1.184l0,0l-0.857-0.727L24.176,88.905L24.176,88.905z M15.258,79.534v-0.434l3.295-0.988
			c0.561-0.158,1.049-0.293,1.443-0.453l0.494,0.752l-0.723,0.256v0.039c0.496,0.039,1.188,0.258,1.545,0.848
			c0.363,0.598,0.193,1.426-1.377,1.881l-2.996,0.852l-0.521-0.852l2.824-0.85c0.725-0.197,1.146-0.557,0.85-1.031
			c-0.225-0.354-0.719-0.49-1.145-0.453c-0.131,0-0.295,0.039-0.426,0.064l-2.965,0.887L15.258,79.534L15.258,79.534z
			 M15.258,77.755c0.072-0.039,0.141-0.039,0.199-0.064l1.881-0.426c1.115-0.262,2.004-0.854,1.41-2.016
			c-0.268-0.557-0.721-0.953-1.088-1.176l-0.748,0.391c0.326,0.168,0.686,0.492,0.85,0.861c0.324,0.613-0.197,0.85-0.523,0.947h-0.1
			c-0.467-0.926-1.088-1.512-1.881-1.68v0.891c0.498,0.098,0.828,0.531,1.061,1.027l-0.723,0.158
			c-0.07,0.037-0.197,0.037-0.297,0.062c0,0-0.041,0-0.041-0.025V77.755L15.258,77.755z M15.258,73.31v-0.812l2.008-0.039
			l0.332,0.928L15.258,73.31L15.258,73.31z M15.258,71.667v-1.344h1.16l0.295,0.752L15.258,71.667L15.258,71.667z M15.258,69.136
			v-1.047l0.268-0.1l0.365,0.914L15.258,69.136L15.258,69.136z M15.258,67.36v-0.693l0.17,0.668L15.258,67.36L15.258,67.36z
			 M17.534,66.544c-0.1-0.295-0.463-0.471-0.889-0.395c-0.395,0.023-0.656,0.301-0.559,0.594c0.062,0.318,0.459,0.494,0.854,0.418
			C17.366,67.101,17.633,66.862,17.534,66.544z M10.991,60.89L15,60.655l0.201,1.48h0.057v-3.951l-0.551,0.035l0.199,1.486
			l-3.916,0.219V60.89L10.991,60.89z M15.258,66.667v0.693l-4.268,0.564V66.94l4.172-0.572L15.258,66.667L15.258,66.667z
			 M15.258,68.089v1.047l-1.609,0.594c-0.525,0.197-1.078,0.395-1.613,0.555v0.039c0.596-0.039,1.219-0.039,1.809-0.039l1.414,0.039
			v1.344l-0.688,0.297c-0.586,0.234-1.119,0.434-1.643,0.633l0,0c0.594-0.039,1.186-0.078,1.838-0.1h0.492v0.812l-3.348-0.1
			l-0.326-0.85l1.965-0.826c0.494-0.223,0.959-0.391,1.584-0.586v-0.031c-0.695,0.061-1.248,0.061-1.811,0.031l-2.303-0.072
			l-0.029-0.059v-0.93L15.258,68.089L15.258,68.089z M15.258,74.593v0.891c-0.156-0.039-0.324-0.039-0.52,0
			c-0.525,0.137-0.625,0.436-0.496,0.691c0.17,0.357,0.623,0.531,1.016,0.531v1.049c-0.393,0.1-0.75,0.199-1.016,0.299l-0.398-0.828
			l0.568-0.199l-0.037-0.023c-0.49-0.098-0.982-0.436-1.219-0.891c-0.33-0.729,0.195-1.279,0.986-1.48
			C14.54,74.532,14.907,74.532,15.258,74.593L15.258,74.593z M15.258,79.101v0.434l-0.223-0.369L15.258,79.101L15.258,79.101z
			 M10.991,65.716v-0.949c0.064,0.033,0.127,0.033,0.199,0l0.748-0.039c-0.059-0.592-0.326-1.146-0.947-1.246v-0.928
			c1.045,0.139,1.678,0.891,1.836,2.076h0.102c0.326-0.025,0.916-0.16,0.82-0.814c-0.061-0.395-0.297-0.768-0.555-0.986l0.85-0.275
			c0.301,0.275,0.596,0.729,0.695,1.322c0.168,1.213-0.854,1.645-2.039,1.705L10.991,65.716z M8.557,60.101l0.1,0.951l2.334-0.162
			v-0.965L8.557,60.101L8.557,60.101z M10.991,62.554v0.928c-0.07,0-0.168,0-0.27,0c-0.52,0.041-0.719,0.295-0.689,0.594
			c0.07,0.395,0.465,0.623,0.859,0.691c0.029,0,0.066,0,0.1,0v0.949l-0.27,0.039c-0.455,0.023-0.945,0.061-1.275,0.119l-0.137-0.848
			l0.594-0.1v-0.033c-0.457-0.195-0.82-0.561-0.893-1.055c-0.127-0.752,0.598-1.211,1.416-1.285
			C10.624,62.532,10.823,62.554,10.991,62.554L10.991,62.554z M10.991,66.94v0.984l-0.889,0.123l-0.266-0.947L10.991,66.94
			L10.991,66.94z M10.991,69.888v0.93l-0.299-0.789L10.991,69.888z"/>
		<path fill="#009EE9" d="M26.579,44.282c2.496-0.273,4.992-0.865,7.463-0.432c2.363,0.432,4.566,1.512,6.379,3.062
			c1.777,1.504,3.092,3.52,4.24,5.518c1.115,1.977,2.137,4.072,2.598,6.314c0.82,4.006,1.02,8.096,0.426,12.131
			c-0.258,1.621-1.314,3.494-2.361,4.744c-0.467,0.555-1.018,0.812-1.709,0.947v-0.057c0.49-0.336,0.848-0.73,1.018-1.324
			c0.424-1.482,0.395-3.064,0.199-4.568l-2.039-10.555c-0.693-2.73-2.049-5.521-3.756-7.764c-1.076-1.449-2.434-2.656-3.809-3.812
			c-1.551-1.314-3.162-2.6-5.066-3.293L26.579,44.282z"/>
		<path fill="#FF000A" d="M56.997,35.429c0.75,0,1.514,0.135,2.264,0.295l0.525,0.238l0.465,0.256l0.324,0.264l0.072,0.07
			l0.393,0.299l0.359,0.395c2.271,2.791,1.512,8.938,0.658,12.062c-0.227,0.852-0.525,1.678-0.889,2.5
			c7.502,2.93,11.447,1.018,15.42-0.07l7.305,2.078c-5.85,5.652-18.119,5.652-25.057,2c-0.465,0.59-0.953,1.162-1.482,1.674
			c-0.131,0.141-0.258,0.238-0.357,0.373v-8.49c0.625,0.391,1.244,0.787,1.865,1.158c1.812-2.963,4.246-9.842,2.377-13.186
			l-0.27-0.434l-0.357-0.359l-0.037-0.07l-0.395-0.195l-0.457-0.166L59.2,35.987c-0.73-0.064-1.482-0.025-2.203,0.102V35.429z
			 M27.598,57.489c10.656,1.547,19.139,3.127,28.182-3.574c-1.975-1.449-3.658-3.225-4.775-5.361
			c-1.711-3.32-2.16-8.123,0.629-11.051c1.414-1.48,3.387-2.102,5.363-2.074v0.66c-0.922,0.168-1.777,0.463-2.57,0.92
			c-1.908,1.148-2.598,3.381-2.305,5.496c0.367,2.789,2.178,5.262,4.58,6.703c0.1,0.061,0.199,0.135,0.295,0.164v8.49
			c-8.586,8.25-20.455,6.213-30.85,4.039L27.598,57.489z"/>
		<path fill="#FF000A" d="M78.963,71.964v-0.986h1.115l-0.689-1.742c-0.17-0.434-0.299-0.887-0.426-1.311v-1.021h1.045l2.799,7.076
			h-1.68l-0.783-2.016H78.963z M78.963,66.903v1.021l0,0h-0.037c-0.1,0.391-0.23,0.877-0.393,1.311l-0.658,1.742h1.088v0.986H77.61
			l-0.727,2.016h-1.639l2.758-7.076H78.963L78.963,66.903z M62.225,71.964v-0.986h1.119l-0.693-1.742
			c-0.17-0.434-0.295-0.887-0.426-1.285v-1.047h1.049l2.799,7.076H64.36l-0.758-2.016H62.225L62.225,71.964z M68.702,73.979V71.44
			c0-1.178,0-2.105-0.07-3.031h0.039c0.424,0.787,0.98,1.678,1.543,2.445l2.234,3.125h1.646v-7.076h-1.479v2.469
			c0,1.051,0.029,1.967,0.158,2.928h-0.027c-0.4-0.766-0.895-1.582-1.484-2.373l-2.199-3.023h-1.807v7.076H68.702z M58.766,67.95
			h0.295v-1.047h-0.295V67.95L58.766,67.95z M62.225,66.903v1.047c0-0.025,0-0.025,0-0.025h-0.039
			c-0.129,0.391-0.256,0.877-0.396,1.311l-0.684,1.742h1.119v0.986h-1.352l-0.754,2.016h-1.354v-0.732l2.502-6.344H62.225z
			 M55.02,73.979h1.582V67.95h2.164v-1.047h-6.209v1.047h2.463V73.979L55.02,73.979z M58.766,73.247v0.732H58.51L58.766,73.247z"/>
		<path fill="#009EE9" d="M42.918,38.134c1.938-0.432,3.945,1.148,4.41,3.518c0.496,2.336-0.691,4.57-2.668,4.963
			c-1.969,0.42-3.943-1.15-4.438-3.516C39.727,40.767,40.942,38.526,42.918,38.134z"/>
		<path fill="#009EE9" d="M56.661,38.331c0.1-0.334,0.662-0.393,0.961-0.592c0.262-0.176,0.096-0.531,0.59-0.531
			c0.357,0,0.33,0.395,0.693,0.355c0.256-0.023,0.752-0.158,0.818,0.139c0.062,0.355-0.426,0.529-0.164,0.949
			c0.266,0.461-0.104,1.186-0.229,1.621c-0.07,0.117-0.131,0.254-0.199,0.416c0.166,0.924,0,1.939-0.129,2.826
			c-0.141,0.768-0.729,1.125-0.986,1.719c0,0.061-0.035,0.16-0.102,0.23c-0.098,0.223-0.129,0.523-0.068,0.783l0.268,1.281
			c0.098,0.373-0.297-0.1-0.328,0.039c-0.039,0.059-0.098-0.1-0.139-0.139c-0.256-0.16-0.324-0.418-0.492-0.689
			c-0.1-0.16-0.354-0.398-0.553-0.557c-0.234-0.061-0.498-0.131-0.625-0.158c-0.336-0.137-0.336-0.365-0.395-0.693
			c-0.037-0.098-0.1-0.197-0.199-0.295c-0.037,0-0.068-0.039-0.098-0.064c-0.066-0.098-0.137-0.295-0.234-0.332
			c-0.16-0.135-0.455-0.334-0.488-0.553l-0.236-1.068c-0.1-0.586,0.529-0.947,0.662-1.504C55.346,40.073,56.27,39.44,56.661,38.331z
			"/>
		<path fill="#009EE9" d="M36.475,37.54c1.215,0.617,2.4,1.25,3.619,1.869c0.027-0.102,0.096-0.166,0.129-0.264
			c0.197-0.26,0.365-0.455,0.592-0.693c0.197-0.195,0.424-0.395,0.693-0.555c0.195-0.1,0.395-0.195,0.59-0.295
			c0.23-0.1,0.426-0.158,0.654-0.197c0.236-0.037,0.465-0.061,0.689-0.102c0.396,0.041,0.723,0.064,1.119,0.16
			c0.27,0.076,0.529,0.176,0.822,0.334c0.195,0.1,0.393,0.199,0.562,0.336c0.098,0.061,0.197,0.123,0.264,0.223
			c0.723-1.348,1.416-2.658,2.137-4.014C45.225,32.935,40.059,32.642,36.475,37.54z"/>
		<polygon fill="#FFFFFF" points="39.569,35.987 40.094,35.962 40.122,36.515 40.717,36.458 40.717,36.97 40.122,37.009 
			40.157,37.603 39.627,37.64 39.6,37.069 39.006,37.106 38.975,36.614 39.569,36.552 		"/>
	</g>
</g>
</svg>
